<svg width="564" height="61" fill="none" xmlns="http://www.w3.org/2000/svg"><path d="M74.92 46V16h7.44v26.08l-2.2-.44 18-25.64H108v30h-7.4V19.48l2.16.44L84.52 46h-9.6zm53.746.64c-3.12 0-5.853-.44-8.2-1.32-2.346-.88-4.173-2.12-5.48-3.72-1.306-1.627-2.013-3.52-2.12-5.68h7.56c.214 1.573 1.014 2.787 2.4 3.64 1.387.827 3.334 1.24 5.84 1.24 2.347 0 4.16-.333 5.44-1 1.307-.667 1.96-1.667 1.96-3 0-1.147-.546-1.987-1.64-2.52-1.093-.533-2.866-.8-5.32-.8h-5.64v-5.04h5.52c1.467 0 2.667-.147 3.6-.44.934-.293 1.627-.707 2.08-1.24.454-.56.68-1.173.68-1.84 0-.8-.266-1.48-.8-2.04-.533-.56-1.293-.973-2.28-1.24-.986-.293-2.173-.44-3.56-.44-2.266 0-4.066.413-5.4 1.24-1.306.8-2.08 1.933-2.32 3.4h-7.48c.134-1.947.814-3.707 2.04-5.28 1.254-1.573 3.014-2.827 5.28-3.76 2.267-.96 5.014-1.44 8.24-1.44 2.827 0 5.28.36 7.36 1.08 2.08.72 3.694 1.707 4.84 2.96 1.174 1.253 1.76 2.707 1.76 4.36 0 1.36-.413 2.613-1.24 3.76-.8 1.147-2.066 2.053-3.8 2.72-1.706.667-3.92.987-6.64.96v-.8c2.587-.133 4.8.053 6.64.56 1.867.48 3.294 1.253 4.28 2.32 1.014 1.067 1.52 2.427 1.52 4.08 0 1.813-.586 3.427-1.76 4.84-1.173 1.387-2.893 2.48-5.16 3.28-2.24.773-4.973 1.16-8.2 1.16zm36.878 0c-3.52 0-6.614-.653-9.28-1.96-2.64-1.307-4.694-3.133-6.16-5.48-1.467-2.347-2.2-5.08-2.2-8.2 0-3.12.733-5.853 2.2-8.2 1.466-2.347 3.52-4.173 6.16-5.48 2.666-1.307 5.76-1.96 9.28-1.96 3.52 0 6.6.653 9.24 1.96 2.666 1.307 4.733 3.133 6.2 5.48 1.493 2.347 2.24 5.08 2.24 8.2 0 3.12-.747 5.853-2.24 8.2-1.467 2.347-3.534 4.173-6.2 5.48-2.64 1.307-5.72 1.96-9.24 1.96zm0-6.76c2.08 0 3.866-.347 5.36-1.04 1.493-.72 2.64-1.747 3.44-3.08.826-1.333 1.24-2.92 1.24-4.76 0-1.84-.414-3.427-1.24-4.76-.8-1.333-1.947-2.347-3.44-3.04-1.494-.72-3.28-1.08-5.36-1.08-2.054 0-3.827.36-5.32 1.08-1.494.693-2.654 1.707-3.48 3.04-.827 1.333-1.24 2.92-1.24 4.76 0 1.84.413 3.427 1.24 4.76.826 1.333 1.986 2.36 3.48 3.08 1.493.693 3.266 1.04 5.32 1.04zm27.685-12.32h13.44c2.453 0 4.48.387 6.08 1.16 1.626.773 2.84 1.853 3.64 3.24.8 1.36 1.2 2.973 1.2 4.84 0 1.84-.44 3.453-1.32 4.84-.854 1.387-2.107 2.467-3.76 3.24-1.627.747-3.574 1.12-5.84 1.12h-19.2l2.32-15.64-2.32-14.36h27.76v5.84h-23.08l2.88-3.56 1.96 11.96-2.12 13.68-2.88-3.52h13.72c1.36 0 2.426-.333 3.2-1 .773-.667 1.16-1.6 1.16-2.8 0-1.173-.4-2.093-1.2-2.76-.774-.693-1.827-1.04-3.16-1.04h-12.48v-5.24zM222.748 46V16h7.44v26.08l-2.2-.44 18-25.64h9.84v30h-7.4V19.48l2.16.44L232.348 46h-9.6zm44.946-30h28.84v30h-7.56V19.28l3.4 3.4h-20.48l3.2-2.52c.187 1.867.32 3.653.4 5.36.107 1.68.16 3.28.16 4.8 0 3.813-.346 6.92-1.04 9.32-.666 2.373-1.733 4.133-3.2 5.28-1.44 1.12-3.32 1.68-5.64 1.68-.986 0-1.96-.107-2.92-.32-.96-.213-1.826-.52-2.6-.92v-6.28c1.174.453 2.254.68 3.24.68 1.787 0 3.067-.813 3.84-2.44.8-1.653 1.2-4.347 1.2-8.08 0-1.76-.066-3.733-.2-5.92a148.551 148.551 0 00-.64-7.32zm35.687 30V16h7.44v26.08l-2.2-.44 18-25.64h9.84v30h-7.4V19.48l2.16.44L312.981 46h-9.6zm65.146-17.8v5.6h-21.72v-5.6h21.72zm-16.6 2.8l-2 12.4-3.16-3.56h23.04V46h-27.44l2.32-15-2.32-15h27.24v6.16h-22.84l3.16-3.56 2 12.4zm54.723.28l.64-1.48c2.346.053 4.266.413 5.76 1.08 1.52.667 2.64 1.587 3.36 2.76.746 1.147 1.12 2.48 1.12 4 0 1.6-.374 3.04-1.12 4.32-.747 1.253-1.867 2.24-3.36 2.96-1.467.72-3.307 1.08-5.52 1.08h-21.6l2.32-15.4-2.32-14.6h20.84c2.773 0 4.92.653 6.44 1.96 1.546 1.28 2.32 3.053 2.32 5.32a7.811 7.811 0 01-.88 3.6c-.587 1.147-1.52 2.12-2.8 2.92-1.28.773-3.014 1.267-5.2 1.48zm-13.28 12.88l-2.88-3.56h15.24c1.306 0 2.32-.307 3.04-.92.746-.64 1.12-1.533 1.12-2.68 0-1.147-.414-2.053-1.24-2.72-.8-.693-2-1.04-3.6-1.04h-12.48v-5.28h11.52c1.093 0 2-.307 2.72-.92.72-.64 1.08-1.507 1.08-2.6 0-.88-.307-1.6-.92-2.16-.614-.587-1.507-.88-2.68-.88h-13.76l2.84-3.56 2.12 12.76-2.12 13.56zM422.811 46V16h7.52v23.96l-2.04-1.56 17.76-22.4h8l-24.44 30h-6.8zm14.36-14.52l5.44-4.68 11.84 19.2h-8.56l-8.72-14.52zM465.305 46l5.28-9.16h.12L482.625 16h8.16l-17.32 30h-8.16zm5.2-4.2L455.545 16h8.32l11.92 20.68-5.28 5.12zm54.726-8.2c-.294 2.587-1.187 4.867-2.68 6.84-1.494 1.947-3.467 3.467-5.92 4.56-2.454 1.093-5.254 1.64-8.4 1.64-3.44 0-6.467-.653-9.08-1.96-2.587-1.307-4.6-3.133-6.04-5.48-1.44-2.347-2.16-5.08-2.16-8.2 0-3.12.72-5.853 2.16-8.2 1.44-2.347 3.453-4.173 6.04-5.48 2.613-1.307 5.64-1.96 9.08-1.96 3.146 0 5.946.547 8.4 1.64 2.453 1.093 4.426 2.613 5.92 4.56 1.493 1.947 2.386 4.227 2.68 6.84h-7.6c-.267-1.36-.814-2.52-1.64-3.48-.8-.96-1.867-1.693-3.2-2.2-1.307-.533-2.827-.8-4.56-.8-2 0-3.72.373-5.16 1.12-1.44.72-2.547 1.76-3.32 3.12-.774 1.36-1.16 2.973-1.16 4.84s.386 3.48 1.16 4.84c.773 1.36 1.88 2.413 3.32 3.16 1.44.72 3.16 1.08 5.16 1.08 1.733 0 3.253-.253 4.56-.76 1.333-.507 2.4-1.24 3.2-2.2.826-.96 1.373-2.133 1.64-3.52h7.6zm9.105 6.36v-6.08h20.72v6.08h-20.72zM549.776 16l13.84 30h-8.04l-11.88-26.84h2.32L534.176 46h-8.04l13.84-30h9.8z" fill="#A41E1D"/><path fill-rule="evenodd" clip-rule="evenodd" d="M61 30.5C61 47.346 47.345 61 30.5 61S0 47.345 0 30.5C0 13.658 13.655 0 30.5 0S61 13.655 61 30.5z" fill="#36312C"/><path fill-rule="evenodd" clip-rule="evenodd" d="M55.537 38.204a4.921 4.921 0 00-.873.065c-.37.035-.377-.215-.462-.597-.229-1.01-1.086-1.167-1.666-1.125-.94.068-1.655 1.125-1.48 2.219.102.642-.034 1.013-.689 1.168-.58.138-1.104.235-1.104.235s-.322.238-.733-.094a3.44 3.44 0 01-.68-.72s.157-.066.356-.479c.325-.675.918-.091 1.216-.032.592.117 1.56-.536 1.716-1.776.062-.484.018-1.498-.826-1.893-1.13-.53-1.44.244-1.829.042-.2-.104.214-.733-.457-1.326-.577-.51-1.937-.54-2.698.114-.44.379-.47 1.634-.318 1.944.452.918-.694.91-.694.91s-.384-.644-1.795-2.037c-1.26-1.246-2.903-2.55-4.844-3.228-.862-.301-1.943-.42-3.23-.538-.996-.091-2.33.151-3.795.167-1.41.016-2.703.446-3.355.575a15.71 15.71 0 01-.166-2.262c.004-1.88.35-3.743 1.021-5.499.387.072.814.144 1.275.21 1.213.175 2.756.893 4.303.893 4.445 0 9.152-1.502 12.738-3.945 1.281-.872 2.106-2.944 2.901-4.055.345-.48.618-.9.798-1.188a15.536 15.536 0 017.58 9.946 15.52 15.52 0 01-2.21 12.306zM39.635 4.66c-18.076-6.415-29.93 8.244-29.93 8.244s17.786 3.293 19.514 4.273c1.728.981 12.591 5.07 12.591 5.07s3.615-1.503 6.115-4.208c2.651-2.869 2.776-5.322 2.775-5.322 0 0-2.68-5.081-11.065-8.057zm4.997 9.306a1.372 1.372 0 01-.97-2.339 1.372 1.372 0 111.495 2.235 1.372 1.372 0 01-.525.104zm-29.56 7.588a5.131 5.131 0 012.199.096c2.46.627 4.252 1.582 5.955 3.538 2.838 3.258 3.885 7.205 3.923 12.926.036 5.325 2.763 6.94 4.636 8.804 1.73 1.721 3.05 2.429 3.036 5.488a5.595 5.595 0 01-4.484 5.441c-4.81 1.051-12.494-2.56-16.355-5.27-3.696-2.592-6.43-6.568-7.691-9.061-1.308-2.584-1.999-3.942-2.238-5.799-.14-1.086-.14-3.386.668-5.199 1.205-2.698 5.122-4.776 6.994-5.076a15.734 15.734 0 012.646-.153c1.133.017 2.606 1.448 3.517 1.692.988.266 1.09.751 1.509.27.735-.845-1.7-2.674-2.525-3.945-.59-.91-1.191-1.05-1.38-1.542a6.252 6.252 0 01-.41-1.672c-.049-.515 0-.538 0-.538z" fill="#F4E4D2"/><path fill-rule="evenodd" clip-rule="evenodd" d="M55.77 40.612c-.538.362-1.227-.315-2.305.117-.536.215-.802 1.308-1.105 2.148-.304.841-.966 4.313-2.947 6.76l-3.242-1.74-12.801-3.303s.58-1.342 1.451-2.254c.668-.7 2.113-2.215 5.652-2.406 3.036-.163 4.39.709 6.819 1.121a6.667 6.667 0 003.51-.388c1.23-.483.966-1.93.857-2.506-.109-.576.57-1.199 1.401-.794.576.28.496 1.014.772 1.237.405.328.926.163 1.393.053.467-.11.958.191 1.095.775.117.51-.1.877-.55 1.18zm-6.656-2.8c-.39-.101-1.172-.29-1.588.21-.207.247-.467 1.037-.467 1.037s-.583-.327-.969-.595c-.37-.265-.724-.55-1.062-.853 0 0 .77-.256.922-.607.27-.619-.315-1.728.117-2.289.359-.465 1.074-.62 1.518-.163.397.409.128.946.654 1.237.51.283 1.04-.339 1.72-.07.45.177.709.474.709 1.168-.002.783-.935 1.086-1.553.925zm-.818 2.707a4.115 4.115 0 01-1.202-.101c-.889-.21-2.464-.705-2.464-.705s-5.068-3.562-6.843-4.075c-1.775-.514-7.31-2.522-8.36-2.312a11.4 11.4 0 01-1.875.221l-.173-1.126s1.944-.793 6.992-.495c2.482.147 5.658 1.392 7.962 3.899 3.133 3.408 5.963 4.694 5.963 4.694z" fill="#F4E4D2"/><path fill-rule="evenodd" clip-rule="evenodd" d="M42.598 7.24s-1.938 1.868-2.289 4.344c-.193 1.36-.046 4.27 1.355 6.352 1.619 2.405 2.989 2.743 2.989 2.743s-3.856 2.894-9.488 3.206c-8.018.443-10.645-2.074-14.707-4.782-3.503-2.335-6.202-3.025-9.99-1.787-4.085 1.333-6.341 6.391-6.341 6.39-.002.003.635-4.673 4.205-9.253 4.472-5.737 11.052-10.67 21.585-10.67 8.15 0 12.68 3.457 12.68 3.457zm-7.956 48.248s.847-.905.815-3.687c-.032-2.756-2.04-4.357-2.958-5.242-.446-.43-2.439-1.705-3.657-3.973-.52-.969-1.035-2.34-.973-4.737.045-1.712-.373-4.734-.373-4.734s2.712-.988 6.367-.607c5.232.545 7.06 2.905 8.72 4.441 2.183 2.022 3.207 2.907 4.624 3.484 0 0-.43.012-1.599-.26-.665-.156-1.549-.397-2.662-.603-2.164-.4-4.512.031-5.594.567a8.683 8.683 0 00-2.607 1.956 5.934 5.934 0 00-1.243 2.326 6.417 6.417 0 011.555-2.048c.661-.6 1.627-1.016 2.372-1.284 3.814-1.375 6.751-.243 8.625.337 1.512.467 3.764.435 4.562 1.703 1.059 1.682-.123 5.33-1.588 7.006-2.74 3.137-4.92 4.593-9.42 5.263-3.153.468-4.966.093-4.966.093z" fill="#C9A567"/><path fill-rule="evenodd" clip-rule="evenodd" d="M54.021 37.852c-.228-1.01-.906-1.167-1.486-1.125-.94.068-1.652.642-1.3 2.04.158.63-.214 1.37-.869 1.526-.58.138-1.104.235-1.104.235a2.983 2.983 0 01-.733-.453c-.333-.259-.68-.5-1.04-.72.131-.212.25-.432.357-.657.325-.675 1.277-.45 1.575-.392.592.117 1.56.003 1.716-1.237.062-.484.018-1.319-.826-1.714-1.13-.53-1.44.065-1.829-.138-.199-.103.035-.553-.636-1.146-.577-.51-1.4-.54-2.16.114-.44.378-.47 1.455-.318 1.764.452.919-.874 1.269-.874 1.269l-.243-.242c-.352-.35-.4-1.552-1.372-2.513-1.26-1.245-2.904-2.55-4.844-3.227-.622-.218-.731-.493-1.435-.538-1.218-.077-1.39-.879-3.409-.717-.716.057-1.815.79-2.512.896-.098-.674.18-.733.18-1.434 0-1.863.244-1.418.897-3.048 1.2.17 2.425-.897 3.947-.897 4.445 0 6.835-2.518 10.422-4.96 1.317-.897 2.523-2.392 3.32-3.516a14.213 14.213 0 017.093 9.427 14.197 14.197 0 01-2.479 11.532 1.02 1.02 0 01-.038-.129z" fill="#9C6934"/><path fill-rule="evenodd" clip-rule="evenodd" d="M43.418 35.36c-.312-.31-.484-.848-.897-1.255-1.261-1.246-2.905-1.829-4.844-2.51-.638-.224-1.498-.072-2.333-.18a30.124 30.124 0 00-4.485-.179 12.85 12.85 0 00-2.316.307c-.114-.623-.066-1.34-.066-2.041a14.14 14.14 0 011.02-5.268c1.372.199 2.756.3 4.142.305 4.445 0 6.731.713 10.317-1.73 1.009-.687-1.043 1.596-1.704 2.2 4.281 2.323.987.16.987 5.51 0 2.098.152 3.258.179 4.84z" fill="#C9A567"/><path fill-rule="evenodd" clip-rule="evenodd" d="M32.129 57.73s1.503.106 4.862-.536c2.52-.481 4.859-1.425 7.443-2.905 1.582-.905 3.527-2.997 3.527-2.997s-4.01 2.92-8.229 3.636c-.611.104-4.912.287-4.912.287a9.923 9.923 0 01-1.337 1.62 4.152 4.152 0 01-1.354.895z" fill="#9C6934"/><path fill-rule="evenodd" clip-rule="evenodd" d="M50.51 35.467l-.02-.013a1.607 1.607 0 00-.18-.1c-1.13-.53-1.439.065-1.828-.137-.2-.104.034-.554-.636-1.146-.577-.51-1.4-.54-2.16.114-.44.378-.47 1.454-.318 1.764.452.918-.874 1.268-.874 1.268s-.026-1.182-1.435-2.575c-1.261-1.245-3.263-2.191-5.203-2.869a17.579 17.579 0 00-.539-.18c-.03-.008-.148-.17-.179-.178-.144-.042-.206.037-.359 0-.008-.002 0 .008 0 0-.004-.705.166.193 0 .179-.02-.002-.518-.355-.538-.359-.173-.034-.524.193-.718.18-.173-.012.004 0 0 0a21.377 21.377 0 00-2.69-.18 9.015 9.015 0 01-.194-1.734c0-1.816.247-3.43 1.09-4.9a23.956 23.956 0 004.312-.567c.845-.186.074.848.891.567.585-.2 3.804-.993 4.844-1.614.558-.332-.908-.595-.611-.739a23.52 23.52 0 002.97-1.718 7.62 7.62 0 00.397-.292 10.042 10.042 0 015.83 6.657 10.03 10.03 0 01-1.705 8.681 1.432 1.432 0 00-.146-.109z" fill="#C9A567"/><path fill-rule="evenodd" clip-rule="evenodd" d="M48.483 35.218c-.137-.23-.168-.19-.403-1.054-.175-.643-2.114-1.07-2.868-.418-.438.38-.331 2.022-.18 2.331.452.919-.537 1.14-.537 1.14s-.564-1.181-1.974-2.574a13.107 13.107 0 00-4.844-3.048c-.628-.22-1.288-.091-2.153-.18-.38-.022-.76-.064-1.136-.125a10.75 10.75 0 01-.195-1.789 8.358 8.358 0 011.688-5.063c.742-.135 1.45-.254 2.15-.407.344-.075.023.303.364.212 1.12-.302 3.303-.884 4.485-1.434.161-.076-.256-.31-.113-.377.745-.344 1.47-.727 2.175-1.148a8.52 8.52 0 015.94 5.795 8.508 8.508 0 01-1.813 8.096c-.239.058-.481.219-.586.043z" fill="#F4E4D2"/><path fill-rule="evenodd" clip-rule="evenodd" d="M47.846 34.071c-.577-.51-1.4-.54-2.16.114-.439.378-.47 1.455-.317 1.764a.774.774 0 01.087.448 7.235 7.235 0 01-1.37.414c-.39-.386-1.038-1.029-1.878-1.859a14.587 14.587 0 00-4.575-2.974c-.549-.233-1.076-.327-2.065-.534a9.78 9.78 0 01-.18-1.78 7.268 7.268 0 012.672-5.636 23.06 23.06 0 004.788-1.64 7.286 7.286 0 016.49 4.338 7.274 7.274 0 01-1.167 7.715c-.09-.138-.2-.262-.325-.37zM32.485 55.302c-1.028 1.366-2.803 1.658-3.854 1.658-1.015 0-1.889-.129-4.168-.735a46.905 46.905 0 01-3.62-1.11c-.857-.304-.923-.525-.923-.525s.129-.129.713-.28c.552-.144 1.094-.262 1.623-.584 1.494-.91 1.704-1.285 2.032-1.974.123-.35.207-.712.25-1.08.123-.741.322-.776.322-.776s.264-.024.572.467c.33.511.75.958 1.238 1.32.911.595 2.1.575 2.931.408a4.474 4.474 0 002.171-1.04c.864-.724 1.028-1.156 1.028-1.156s.313-.083.607.584c.225.552.337 1.143.327 1.74 0 1.6-.924 2.649-1.25 3.083zm-1.168-4.555c-1.26.895-2.076.91-3.024.853-1.145-.07-1.88-.864-2.58-1.635-.701-.77-.725-1.436-.725-1.436.024-.358.028-.718.01-1.076a5.336 5.336 0 00-.745-2.427 36.546 36.546 0 00-2.657-3.602c-1.705-1.98-3.35-2.917-4.088-3.783a5.522 5.522 0 01-.647-1.16 1.104 1.104 0 01-.095-.485 3.692 3.692 0 001.91-3.097c.263-.105.547-.146.829-.12a6.225 6.225 0 002.347-.491c.967-.38 1.5-.593 2.172-.81a6.073 6.073 0 011.097-.25c.512 1.55.77 3.173.767 4.806-.005 1.121.059 5.343 1.46 7.663.8 1.323 1.9 2.607 3.714 3.99 1.132.865 1.249 1.355 1.249 1.355s.066.954-.994 1.706zm-7.559-19.764a34.9 34.9 0 01-1.83.731 8.328 8.328 0 01-2.078.53c-.4.058-.806.06-1.207.007a3.673 3.673 0 00-4.519-3.08c-.044-.09-.209-.471-.206-1.256-.005-.21.02-.42.076-.624 0 0 .533-.078 1.588.23.69.201 1.536.7 2.37 1.164.877.487.892.278.892.278s.4.033-.483-1.092c-.78-.993-1.817-2.155-2.138-2.626a7.26 7.26 0 01-1.153-2.616s1.41-.347 4.757 1.359c2.26 1.152 3.036 2.55 3.772 3.663.91 1.378 1.024 1.915 1.285 2.709 0 0-.096.177-1.126.623zm-11.773 1.754a2.98 2.98 0 013.567-2.923 2.983 2.983 0 012.173 4.066 2.982 2.982 0 01-4.866.966 2.982 2.982 0 01-.874-2.11zm4.63 0a1.644 1.644 0 00-1.968-1.612 1.646 1.646 0 00-.593 2.98 1.647 1.647 0 002.56-1.368zm-5.32.021a3.68 3.68 0 003.01 3.632c.562.105 1.14.077 1.69-.08.145.096.272.216.375.355.21.28.49 1.191.49 1.191a3.754 3.754 0 00-.816.678c-.49.677-.495 1.011-.584 1.588-.076.49.023 1.646.023 1.646s-.381.454-1.25.105c-1.133-.455-1.804-.192-2.604-.074-.645.096-1.343-.019-1.87.018a7.005 7.005 0 00-1.457.267c-1.086.292-1.437-.059-1.437-.059a13.243 13.243 0 01-.782-1.763c-.514-1.313-.921-2.16-1.296-3.468-.526-1.833-.467-3.024-.467-3.024s.051-.847.908-2.303c.541-.92 1.904-2.39 3.708-3.233a10.112 10.112 0 014.52-.943s.06.37.1 1.119c.024.429.025.798.024.934a3.695 3.695 0 00-2.285 3.414zM8.197 42.67c.677-.047 1.287-.366 2.691-.255 1.024.081 1.325-.262 2.166-.187.84.075.897.233 1.483.305a2.25 2.25 0 001.031-.112s.139.223.135.962a5.344 5.344 0 01-.217 1.488c-.281.92-1.242 2.716-1.57 3.44-.346.763-.51 2.133-.51 2.133s-.76-.397-3.41-3.386a14.972 14.972 0 01-2.571-3.957s.095-.384.772-.431zm7.788 2.356c.56-1.973-.107-3.614-.07-4.81.047-1.484 1.17-1.701 1.17-1.701s.376-.144 1.294.626c.444.373 1.914 1.426 3.013 2.884 1.138 1.51 2.207 2.85 2.673 3.924a5.08 5.08 0 01.237 2.751c-.168.797-.074 2.298-1.043 3.441-.887 1.047-1.81 1.222-2.74 1.588a5.655 5.655 0 01-1.977.335 9.91 9.91 0 01-1.028-.466c-1.02-.519-2.335-1.413-2.732-1.798a3.816 3.816 0 01-.654-.864 6.143 6.143 0 01.128-1.682c.316-1.495 1.321-2.791 1.73-4.228z" fill="#B92A3D"/><path fill-rule="evenodd" clip-rule="evenodd" d="M3.458 35.44s.152-1.67.444-2.441c.258-.681.715-1.818 1.284-2.557.666-.864 1.895-1.84 1.895-1.84s.464-3.368.791-4.1c.327-.732 1.95-4.577 2.743-5.075.794-.498 2.815-1.495 3.407-1.604a34.45 34.45 0 001.495-.33s-1.95-.251-3.16 0c-3.597.75-4.936 2.479-5.948 3.74-1.727 2.15-3.068 5.216-3.261 7.89-.29 4.008.31 6.316.31 6.316z" fill="#9C6934"/><path fill-rule="evenodd" clip-rule="evenodd" d="M6.978 28.684c.259-.25.55-.466.864-.641.545-.276 1.103-.53 1.103-.53s.735-5.104 1.213-5.77c.479-.667 1.926-2.516 2.651-3.037.842-.605 2.83-1.176 2.83-1.176s-2.142-.508-4.477 1.03c-1.861 1.224-3.098 2.832-3.783 5.428-.568 2.153-.4 4.697-.4 4.697z" fill="#C9A567"/><path fill-rule="evenodd" clip-rule="evenodd" d="M15.64 17.53s-.976.837-1.101 3.792c-.082 1.927.269 3.083 1.319 4.476a70.645 70.645 0 001.541 1.962s-1.76-1.242-4.484-1.075c-2.763.17-4.11.895-4.11.895-.056-1.123.02-2.249.226-3.354.342-1.587.743-2.966 2.343-4.62 2.289-2.368 4.266-2.075 4.266-2.075z" fill="#F4E4D2"/></svg>