<svg width="194" height="194" fill="none" xmlns="http://www.w3.org/2000/svg"><path fill-rule="evenodd" clip-rule="evenodd" d="M97 0c53.572 0 97 43.428 97 97s-43.429 97-97 97c-53.572 0-97-43.429-97-97C0 43.428 43.428 0 97 0z" fill="#FFD54F"/><mask id="a" style="mask-type:luminance" maskUnits="userSpaceOnUse" x="0" y="0" width="194" height="194"><path d="M97 0c53.572 0 97 43.428 97 97s-43.429 97-97 97c-53.572 0-97-43.429-97-97C0 43.428 43.428 0 97 0z" fill="#fff"/></mask><g mask="url(#a)" fill-rule="evenodd" clip-rule="evenodd" fill="#E6C047"><path d="M149.566 72.117l107.598 107.598-.014.164L149.552 72.281l.014-.164z"/><path d="M149.552 72.28l107.598 107.6-.033.426-.032.431-.033.437-.033.441-.034.445-.035.448-.036.453-.039.454-.04.457-.044.459-.045.461-.049.461-.052.462-.056.462-.061.463-.064.461-.07.46-.075.459-.081.457-.086.453-.093.451-.098.448-.106.444-.114.44-.12.436-.129.43-.137.424-.145.419-.155.413-.164.405-.173.398-.183.39L146.936 86.429l.184-.39.173-.398.164-.406.155-.412.144-.419.138-.424.129-.43.12-.436.114-.44.106-.444.098-.448.093-.45.086-.455.081-.457.075-.458.07-.46.064-.462.061-.462.056-.462.052-.462.049-.462.045-.46.043-.46.041-.456.039-.455.036-.452.035-.449.034-.445.033-.44.033-.437.032-.431.033-.426z"/><path d="M146.936 86.43l107.599 107.598-.172.341-.179.335-.187.33-.194.324-.201.318-.208.313-.214.308-.221.303-.227.298-.233.292-.238.289-.245.284-.249.279-.254.275-.259.271-.264.266-.268.262-.271.26-.277.255-.28.251-.283.248-.286.244-.289.242-.292.239-.295.235-.298.232-.299.231-.3.227-.303.225-.304.223-.306.22-.306.219L138.734 95.069l.307-.22.306-.22.304-.222.302-.225.301-.228.299-.23.298-.232.295-.236.291-.238.29-.242.286-.244.283-.248.28-.252.277-.255.271-.259.268-.262.264-.267.258-.27.255-.275.249-.28.244-.283.238-.288.234-.293.227-.298.221-.303.214-.308.207-.313.202-.319.194-.323.187-.33.179-.335.171-.342z"/><path d="M138.734 95.068l107.599 107.598-2.513 1.779L136.222 96.847l2.512-1.779z"/><path d="M144.389 103.288l107.599 107.598.259.284.254.288.249.294.243.298.237.302.231.309.223.314.218.318.21.325.204.329.195.337.189.342.18.347-107.598-107.599-.18-.347-.189-.341-.195-.337-.204-.329-.21-.325-.218-.318-.224-.314-.23-.309-.237-.303-.244-.297-.248-.294-.255-.288-.259-.284z"/><path d="M147.282 107.374L254.88 214.973l.192.397.183.405.172.412.162.417.153.425.144.43.135.436.128.44.12.445.111.449.105.453.097.457.091.459.085.461.079.464.074.466.069.466.064.467.059.468.055.468.052.467.049.466.044.465.043.464.04.461.038.459.037.455.035.453.035.449.034.444.034.441.034.435-107.599-107.598-.033-.435-.034-.441-.034-.444-.035-.449-.035-.453-.037-.455-.038-.459-.04-.461-.043-.464-.044-.465-.049-.466-.052-.467-.055-.468-.059-.468-.064-.467-.069-.467-.074-.465-.079-.464-.085-.462-.091-.458-.097-.457-.105-.453-.112-.449-.119-.445-.128-.44-.135-.436-.144-.43-.153-.425-.162-.418-.173-.411-.182-.405-.192-.398z"/><path d="M150.034 121.719l107.599 107.598.012.164-107.598-107.598-.013-.164z"/><path d="M150.047 121.883l107.598 107.598-1.048-.104-107.598-107.599 1.048.105zm-1.048-.105l107.598 107.599-.327-.034-.326-.032-.328-.032-.328-.032-.329-.032-.328-.034-.329-.032-.33-.033-.329-.033-.33-.033-.331-.034-.329-.035-.331-.035-.329-.036-.331-.036-.33-.037-.329-.038-.33-.039-.33-.039-.329-.041-.329-.042-.329-.043-.328-.044-.328-.045-.328-.047-.327-.048-.326-.05-.325-.051-.325-.052-.325-.055-.324-.056-.323-.058-107.598-107.598.323.058.324.056.325.054.325.053.325.051.326.049.327.049.328.046.328.046.328.044.329.043.329.041.329.041.329.04.331.039.329.038.33.037.33.036.33.036.331.035.329.035.331.034.33.033.329.033.329.033.33.032.328.033.329.033.328.032.328.032.326.032.327.033zm-25.585-11.698l107.598 107.599-1.719 1.102-107.598-107.598 1.719-1.103z"/><path d="M131.505 118.252L239.103 225.85l-.266-.147-.263-.152-.259-.157-.255-.161-.25-.166-.247-.169-.243-.173-.239-.178-.236-.181-.233-.186-.228-.189-.227-.192-.221-.197-.22-.199-.216-.203-.213-.206-.211-.209-.207-.213-107.598-107.598.207.213.211.209.213.205.216.204.22.199.221.196.227.193.228.189.233.186.235.18.24.179.243.173.246.169.251.165.255.161.259.158.262.151.267.148z"/><path d="M138.499 120.491l107.598 107.598-.227-.041-.226-.043-.226-.045-.226-.045-.225-.046-.227-.049-.224-.05-.226-.051-.224-.053-.224-.054-.223-.057-.224-.058-.222-.06-.222-.062-.221-.064-.221-.066-.219-.068-.22-.071-.218-.073-.218-.075-.216-.077-.216-.08-.215-.082-.214-.086-.212-.088-.212-.09-.211-.094-.209-.096-.208-.099-.207-.102-.206-.105-.205-.109-107.598-107.598.205.109.205.105.208.101.208.1.209.096.211.093.212.091.212.088.214.085.215.083.215.08.217.077.218.075.218.073.22.07.219.068.221.067.221.064.221.062.223.06.224.058.223.056.224.055.224.053.226.051.224.05.226.049.226.046.225.045.227.045.226.043.227.041zm-16.804-9.308l107.598 107.598-.395.25-.399.246-.401.24-.407.237-.409.231-.412.228-.415.223-.418.218-.421.214-.424.21-.427.205-.428.202-.431.197-.433.192-.435.189-.437.184-.439.181-.44.177-.443.172-.443.169-.444.163-.446.161-.446.157-.449.153-.448.149-.449.145-.449.142-.45.138-.45.134-.449.131-.449.126-.45.125-107.598-107.598.449-.125.45-.126.449-.131.45-.135.45-.137.449-.142.449-.145.448-.15.449-.152.446-.157.446-.161.444-.164.443-.168.442-.172.44-.178.44-.18.437-.184.434-.189.434-.192.431-.197.428-.202.427-.205.424-.21.421-.214.418-.219.415-.222.412-.228.409-.231.407-.237.401-.24.399-.246.395-.25z"/><path d="M107.859 117.072L215.457 224.67l-.612.162-.614.157-.616.151-.618.146-.619.14-.621.135-.623.129-.624.124-.625.118-.626.113-.628.107-.629.102-.63.097-.631.091-.632.087-.632.081-.634.075-.633.071-.634.066-.635.06-.634.056-.636.05-.635.046-.635.041-.636.036-.635.03-.634.026-.635.021-.635.016-.633.013-.634.006-.633.002L87.728 119.627l.633-.002.633-.007.634-.012.635-.016.634-.021.635-.026.635-.031.636-.035.635-.041.635-.046.635-.051.635-.055.635-.06.634-.066.633-.071.634-.075.632-.082.632-.086.63-.091.631-.098.629-.101.628-.108.626-.113.625-.118.624-.123.623-.129.621-.135.619-.14.617-.146.616-.151.615-.157.612-.162zm-20.131 2.555l107.598 107.598-.518-.003-.531-.008-.543-.014-.554-.019-.565-.025-.574-.03-.582-.035-.591-.04-.597-.045-.604-.049-.609-.053-.614-.058-.617-.061-.621-.067-.622-.069-.623-.074-.625-.076-.624-.081-.622-.084-.622-.087-.617-.089-.614-.094-.61-.095-.605-.098-.598-.101-.592-.103-.585-.105-.575-.107-.566-.109-.556-.111-.545-.113-.533-.113L68.874 117.411l.533.113.545.112.556.111.566.11.576.107.584.105.591.102.599.102.604.097.61.096.615.093.618.09.62.087.623.083.624.082.624.076.624.073.622.07.62.067.618.061.614.058.609.053.603.049.598.045.59.04.583.035.574.029.565.026.554.019.543.014.531.008.518.003z"/><path d="M68.874 117.411l107.598 107.598-.397-.101-.397-.102-.395-.105-.395-.107-.393-.11-.393-.113-.391-.114-.391-.117-.389-.12-.387-.122-.387-.124-.385-.128-.384-.13-.383-.132-.381-.135-.379-.138-.378-.14-.376-.142-.376-.145-.373-.148-.371-.15-.37-.154-.367-.155-.367-.159-.363-.161-.363-.164-.36-.166-.358-.169-.356-.173-.355-.174-.352-.177-.35-.181L56.812 112.955l.35.18.352.178.354.174.356.173.359.168.36.167.362.164.364.161.366.158.368.156.37.154.371.149.373.148.375.146.377.142.378.14.38.138.38.134.383.133.384.13.385.127.386.125.388.122.39.119.39.118.391.114.392.113.394.11.395.107.395.105.397.102.397.101z"/><path d="M56.812 112.955L164.41 220.553l-.573-.304-.576-.318-.576-.331-.577-.345-.575-.359-.572-.371-.568-.385-.563-.399-.555-.411-.547-.424-.538-.438-.526-.451L50.066 108.419l.526.451.538.438.547.424.555.411.563.398.568.386.572.371.575.358.577.345.577.331.575.319.573.304z"/><path d="M56.812 80.563c3.682-1.917 7.736-3.37 11.933-4.423 5.663-1.243 13.481-2.25 18.983-2.25 6.719 0 13.557.785 20.051 2.535 4.796 1.292 9.648 3.181 13.847 5.862l1.686 1.076 1.199-1.6c1.887-2.518 4.008-4.76 6.829-6.224 2.061-1.069 4.321-1.647 6.595-2.053 3.203-.573 6.524-.862 9.763-1.183l1.704-.17.164-.016-.013.164c-.355 4.513-.607 10.026-2.616 14.148-1.79 3.671-4.929 6.32-8.203 8.64l-2.512 1.779 2.531 1.752c3.382 2.342 6.649 5.033 8.529 8.775 2.109 4.195 2.39 9.732 2.752 14.344l.013.164-1.048-.105c-3.481-.348-7.059-.661-10.5-1.287-2.416-.439-4.82-1.066-6.994-2.239-2.87-1.549-5.009-3.896-6.896-6.514l-1.194-1.658-1.72 1.104c-4.193 2.691-9.042 4.588-13.837 5.887-6.517 1.766-13.385 2.557-20.13 2.557-5.458 0-13.233-.995-18.854-2.218-4.243-1.055-8.342-2.518-12.062-4.455-6.093-3.173-12.859-8.673-12.859-16.196 0-7.522 6.766-13.022 12.86-16.196z"/></g><path fill-rule="evenodd" clip-rule="evenodd" d="M68.745 76.14c-4.197 1.053-8.251 2.506-11.933 4.423-6.093 3.174-12.859 8.674-12.859 16.196 0 7.523 6.766 13.022 12.86 16.196 3.718 1.937 7.818 3.4 12.061 4.455 1.853-6.734 2.822-13.64 2.789-20.643-.033-6.992-1.063-13.898-2.918-20.627z" fill="#039BE5"/><path fill-rule="evenodd" clip-rule="evenodd" d="M150.047 121.883l-.013-.164c-.362-4.613-.644-10.149-2.752-14.344-1.881-3.742-5.147-6.433-8.529-8.775l-2.532-1.752 2.513-1.78c3.274-2.319 6.413-4.968 8.202-8.639 2.01-4.122 2.262-9.635 2.616-14.148l.013-.164-.164.016-1.703.17c-3.239.321-6.56.61-9.764 1.183-2.274.406-4.534.984-6.595 2.053-2.821 1.464-4.942 3.706-6.828 6.223l-1.199 1.6-1.686-1.076c-4.2-2.68-9.051-4.569-13.848-5.861-6.493-1.75-13.332-2.534-20.05-2.534-5.502 0-13.32 1.006-18.983 2.25l.129 41.269c5.62 1.223 13.395 2.218 18.854 2.218 6.745 0 13.613-.791 20.13-2.557 4.795-1.299 9.644-3.197 13.837-5.888l1.719-1.103 1.195 1.657c1.886 2.619 4.026 4.966 6.896 6.515 2.174 1.173 4.577 1.8 6.994 2.239 3.441.626 7.019.939 10.5 1.287l1.048.105z" fill="#4FC3F7"/><path fill-rule="evenodd" clip-rule="evenodd" d="M92.409 84.667a2.293 2.293 0 00-4.205 1.833c1.619 3.684 2.301 7 2.24 10.024-.062 2.962-.849 5.691-2.177 8.245a2.3 2.3 0 004.079 2.121c1.633-3.143 2.602-6.539 2.68-10.276.075-3.677-.723-7.635-2.617-11.947zm14.592 0a2.293 2.293 0 10-4.204 1.833c1.618 3.684 2.301 7 2.239 10.024-.061 2.962-.848 5.691-2.176 8.245a2.299 2.299 0 004.078 2.121c1.634-3.143 2.603-6.539 2.68-10.276.075-3.677-.722-7.635-2.617-11.947z" fill="#0277BD"/><path fill-rule="evenodd" clip-rule="evenodd" d="M57.12 90.1a3.077 3.077 0 110 6.155 3.077 3.077 0 010-6.155z" fill="#E1F5FE"/></svg>