<svg width="17" height="20" fill="none" xmlns="http://www.w3.org/2000/svg"><path d="M6.071 1.25V2.5h4.858V1.25c0-.69.542-1.25 1.214-1.25.671 0 1.214.56 1.214 1.25V2.5h1.822C16.184 2.5 17 3.34 17 4.375V6.25H0V4.375C0 3.339.815 2.5 1.821 2.5h1.822V1.25C3.643.56 4.185 0 4.857 0c.672 0 1.214.56 1.214 1.25zM0 7.5h17v10.625C17 19.16 16.184 20 15.179 20H1.82C.815 20 0 19.16 0 18.125V7.5zm2.429 4.375c0 .344.271.625.607.625H4.25a.618.618 0 00.607-.625v-1.25A.618.618 0 004.25 10H3.036a.617.617 0 00-.607.625v1.25zm4.857 0c0 .344.273.625.607.625h1.214a.618.618 0 00.607-.625v-1.25A.618.618 0 009.107 10H7.893a.618.618 0 00-.607.625v1.25zM12.75 10a.618.618 0 00-.607.625v1.25c0 .344.273.625.607.625h1.214a.618.618 0 00.607-.625v-1.25a.618.618 0 00-.607-.625H12.75zM2.429 16.875c0 .344.271.625.607.625H4.25a.618.618 0 00.607-.625v-1.25A.618.618 0 004.25 15H3.036a.617.617 0 00-.607.625v1.25zM7.893 15a.618.618 0 00-.607.625v1.25c0 .344.273.625.607.625h1.214a.618.618 0 00.607-.625v-1.25A.618.618 0 009.107 15H7.893zm4.25 1.875c0 .344.273.625.607.625h1.214a.618.618 0 00.607-.625v-1.25a.618.618 0 00-.607-.625H12.75a.618.618 0 00-.607.625v1.25z" fill="#EE842C"/></svg>