<svg width="18" height="19" fill="none" xmlns="http://www.w3.org/2000/svg"><path fill-rule="evenodd" clip-rule="evenodd" d="M13 12c1.306 0 2.418.835 2.83 2H17a1 1 0 010 2h-1.17a3 3 0 01-5.66 0H1a1 1 0 010-2h9.17A3.001 3.001 0 0113 12zm0 2a1 1 0 100 2 1 1 0 000-2zM5 6a3 3 0 012.762 1.828L7.829 8H17a1 1 0 01.117 1.993L17 10H7.83a3 3 0 01-5.592.172L2.17 10H1a1 1 0 01-.117-1.993L1 8h1.17A3.001 3.001 0 015 6zm0 2a1 1 0 100 2 1 1 0 000-2zm8-8c1.306 0 2.418.835 2.83 2H17a1 1 0 110 2h-1.17a3 3 0 01-5.66 0H1a1 1 0 010-2h9.17A3.001 3.001 0 0113 0zm0 2a1 1 0 100 2 1 1 0 000-2z" fill="#2F2F2F"/></svg>