<svg width="22" height="24" fill="none" xmlns="http://www.w3.org/2000/svg"><path d="M11.931 12.143H9.677v1.134h3.472v.952H9.677v1.666H8.39v-1.666H7.2v-.952h1.19v-1.134H7.2v-1.176h1.19V6.095h3.542c.85 0 1.573.298 2.17.896a2.89 2.89 0 01.896 2.142 2.89 2.89 0 01-.896 2.142c-.597.578-1.32.868-2.17.868zm0-4.83H9.677v3.654h2.254c.476 0 .892-.178 1.246-.532.355-.374.532-.808.532-1.302 0-.514-.172-.943-.518-1.288a1.722 1.722 0 00-1.26-.532z" fill="#A31D1C"/><circle cx="11" cy="11.421" r="10.35" stroke="#A31D1C" stroke-width="1.3"/></svg>