<svg width="22" height="22" fill="none" xmlns="http://www.w3.org/2000/svg"><path d="M11 6.8H5.4v7.467h.934c0-.9.733-1.634 1.633-1.634s1.633.733 1.633 1.634H11V6.8zm3.267 8.4a.933.933 0 100-1.867.933.933 0 000 1.867z" fill="#A31D1C"/><path d="M8.9 14.267a.933.933 0 11-1.865 0 .933.933 0 011.865 0zm7.29-4.063l-1.538-1.538h-2.719v5.6h.7c0-.9.733-1.633 1.633-1.633.901 0 1.634.733 1.634 1.634h.7v-3.072c0-.387-.157-.737-.41-.99z" fill="#A31D1C"/><circle cx="11" cy="11" r="10.35" stroke="#A31D1C" stroke-width="1.3"/></svg>