<svg width="28" height="25" fill="none" xmlns="http://www.w3.org/2000/svg"><path d="M13.972 24.215l-1.574-1.405c-2.384-2.107-4.351-3.92-5.901-5.442-1.55-1.522-2.778-2.874-3.684-4.057-.906-1.181-1.538-2.258-1.896-3.23a8.521 8.521 0 01-.536-2.966c0-1.99.686-3.658 2.057-5.005C3.808.765 5.508.092 7.534.092c1.24 0 2.42.287 3.541.86 1.12.574 2.086 1.399 2.897 2.476.81-1.077 1.776-1.902 2.897-2.476a7.675 7.675 0 013.541-.86c2.027 0 3.725.673 5.096 2.018 1.371 1.347 2.057 3.015 2.057 5.005a8.52 8.52 0 01-.536 2.966c-.358.972-.99 2.049-1.896 3.23-.906 1.183-2.134 2.535-3.684 4.057-1.55 1.521-3.517 3.335-5.901 5.442l-1.574 1.405zm0-2.845c2.29-2.013 4.173-3.745 5.651-5.196 1.478-1.451 2.647-2.71 3.505-3.776.859-1.064 1.455-2.006 1.788-2.825.334-.82.501-1.64.501-2.458 0-1.405-.477-2.575-1.43-3.512C23.033 2.667 21.84 2.2 20.41 2.2a5.61 5.61 0 00-3.13.948c-.966.632-1.722 1.51-2.27 2.633h-2.075c-.572-1.147-1.335-2.03-2.29-2.651a5.6 5.6 0 00-3.11-.93c-1.432 0-2.624.468-3.578 1.404-.953.937-1.43 2.107-1.43 3.512 0 .819.167 1.638.5 2.458.334.819.93 1.76 1.789 2.825.858 1.066 2.027 2.318 3.505 3.758 1.478 1.44 3.362 3.178 5.651 5.215z" fill="#A31D1C"/></svg>