<svg width="35" height="35" fill="none" xmlns="http://www.w3.org/2000/svg"><path d="M17.399 34.855c-4.594 0-8.55-1.575-11.868-4.723C2.214 26.985.436 23.114.197 18.52H2.75c.273 3.88 1.804 7.146 4.594 9.8 2.79 2.655 6.142 3.982 10.056 3.982 4.15 0 7.664-1.455 10.54-4.364 2.875-2.91 4.313-6.44 4.313-10.591 0-4.084-1.447-7.546-4.34-10.387C25.02 4.12 21.517 2.698 17.4 2.698a13.9 13.9 0 00-6.254 1.454 15.977 15.977 0 00-5.078 3.956h5.207v2.553H1.677V1.116H4.23V6.22a17.896 17.896 0 015.92-4.466A16.825 16.825 0 0117.4.145c2.415 0 4.678.452 6.787 1.354 2.11.902 3.948 2.135 5.513 3.7a17.796 17.796 0 013.726 5.488c.92 2.092 1.379 4.346 1.379 6.761 0 2.417-.46 4.68-1.379 6.79-.918 2.109-2.16 3.946-3.726 5.512-1.565 1.566-3.402 2.808-5.513 3.726-2.109.92-4.372 1.379-6.787 1.379zm6.533-9.24l-7.657-7.604V7.24h2.552v9.698l6.89 6.84-1.785 1.837z" fill="#A31D1C"/></svg>