<svg width="16" height="14" fill="none" xmlns="http://www.w3.org/2000/svg"><path d="M15.994 6.986a.89.89 0 01-.888.878h-.89l.02 4.378c0 .076-.005.147-.014.221v.443c0 .604-.497 1.094-1.11 1.094h-.445c-.03 0-.061-.025-.092-.003-.039-.022-.078.003-.117.003h-1.57c-.613 0-1.11-.49-1.11-1.094V10.5a.881.881 0 00-.89-.875H7.112a.881.881 0 00-.889.875v2.406c0 .604-.497 1.094-1.11 1.094H3.557c-.041 0-.083-.003-.125-.005a1.196 1.196 0 01-.1.005H2.89c-.614 0-1.111-.49-1.111-1.094V9.844c0-.025 0-.052.002-.077V7.864H.89c-.5 0-.89-.385-.89-.878 0-.246.083-.465.278-.656L7.4.22c.194-.193.417-.22.611-.22.195 0 .417.055.586.192L15.69 6.33c.222.191.336.41.305.656z" fill="#A31D1C"/></svg>