<svg width="16" height="16" fill="none" xmlns="http://www.w3.org/2000/svg"><path d="M8.784 12.078a.784.784 0 11-1.568 0 .784.784 0 011.568 0zM8 3.765c-1.647 0-2.98 1.196-2.98 2.666v.314a.47.47 0 00.94 0v-.314c0-.951.915-1.725 2.04-1.725s2.04.774 2.04 1.725c0 .952-.915 1.726-2.04 1.726a.47.47 0 00-.47.47v.628a.47.47 0 00.94 0v-.19c1.421-.202 2.51-1.307 2.51-2.634 0-1.47-1.333-2.666-2.98-2.666zM16 8a8 8 0 11-8-8 8.01 8.01 0 018 8zm-.941 0A7.059 7.059 0 108 15.059 7.066 7.066 0 0015.059 8z" fill="#BEBEC2" fill-opacity=".7"/></svg>