<svg width="50" height="50" fill="none" xmlns="http://www.w3.org/2000/svg"><g fill-rule="evenodd" clip-rule="evenodd"><path d="M50 25c0 13.807-11.193 25-25 25S0 38.807 0 25C0 11.195 11.193 0 25 0s25 11.193 25 25z" fill="#36312C"/><path d="M45.521 31.315a4.03 4.03 0 00-.715.053c-.303.029-.309-.176-.379-.489-.187-.829-.89-.957-1.365-.922-.77.056-1.357.921-1.213 1.819.084.526-.028.83-.565.957-.476.113-.905.192-.905.192s-.264.195-.601-.077a2.82 2.82 0 01-.558-.59s.13-.053.292-.392c.267-.553.753-.075.998-.027.485.096 1.277-.438 1.406-1.455.05-.397.015-1.228-.677-1.552-.927-.434-1.18.2-1.5.034-.163-.084.176-.6-.374-1.086-.473-.418-1.588-.443-2.211.093-.36.31-.385 1.34-.26 1.593.37.753-.57.746-.57.746s-.315-.528-1.471-1.67c-1.034-1.02-2.38-2.09-3.97-2.645-.708-.247-1.593-.344-2.648-.44-.817-.076-1.91.123-3.11.136-1.157.013-2.216.365-2.75.471a12.814 12.814 0 01-.137-1.854c.003-1.54.286-3.068.837-4.507.317.059.667.117 1.045.172.994.143 2.259.731 3.527.731 3.644 0 7.502-1.23 10.441-3.233 1.05-.715 1.726-2.413 2.378-3.324.282-.393.506-.737.654-.973a12.735 12.735 0 016.213 8.152 12.72 12.72 0 01-1.812 10.087zM32.487 3.82C17.67-1.44 7.954 10.576 7.954 10.576s14.579 2.7 15.995 3.503c1.417.804 10.32 4.155 10.32 4.155s2.964-1.231 5.013-3.449c2.173-2.351 2.275-4.362 2.275-4.362s-2.197-4.165-9.07-6.604zm4.096 7.628a1.125 1.125 0 01-.795-1.917 1.124 1.124 0 11.795 1.917zm-24.23 6.22a4.206 4.206 0 011.803.078c2.017.514 3.485 1.297 4.881 2.9 2.326 2.67 3.184 5.906 3.216 10.595.03 4.365 2.264 5.69 3.8 7.217 1.418 1.41 2.5 1.99 2.488 4.498a4.586 4.586 0 01-3.675 4.46c-3.943.862-10.241-2.1-13.406-4.32-3.03-2.125-5.27-5.383-6.304-7.427-1.072-2.118-1.638-3.23-1.835-4.753-.115-.89-.114-2.775.548-4.261.987-2.212 4.198-3.915 5.733-4.16a12.912 12.912 0 012.169-.127c.929.014 2.136 1.188 2.882 1.388.81.217.893.615 1.237.22.603-.692-1.394-2.191-2.07-3.233-.483-.745-.976-.86-1.13-1.264a5.12 5.12 0 01-.337-1.37c-.04-.423 0-.441 0-.441z" fill="#F4E4D2"/><path d="M45.712 33.289c-.44.296-1.005-.259-1.888.095-.44.177-.658 1.072-.906 1.761-.25.69-.792 3.535-2.416 5.541l-2.657-1.425-10.493-2.708s.476-1.1 1.19-1.848c.547-.573 1.731-1.816 4.632-1.972 2.489-.134 3.599.58 5.59.919.97.154 1.964.044 2.877-.318 1.009-.396.792-1.583.702-2.055-.089-.472.467-.982 1.149-.65.472.229.406.831.632 1.013.332.27.76.134 1.142.044.383-.09.785.157.898.635.096.419-.082.719-.452.968zm-5.455-2.295c-.32-.084-.96-.238-1.302.172-.169.202-.382.85-.382.85s-.479-.268-.794-.488a9.915 9.915 0 01-.871-.7s.63-.21.756-.497c.22-.507-.259-1.416.095-1.876.294-.381.88-.509 1.245-.134.325.335.105.775.536 1.014.418.232.852-.277 1.41-.057.369.145.58.388.58.957 0 .642-.766.89-1.273.759zm-.67 2.218a3.373 3.373 0 01-.986-.083c-.728-.171-2.02-.578-2.02-.578s-4.154-2.919-5.608-3.34c-1.455-.42-5.992-2.067-6.853-1.895a9.336 9.336 0 01-1.537.181l-.142-.922s1.594-.65 5.732-.406c2.034.12 4.637 1.14 6.526 3.195 2.568 2.794 4.888 3.848 4.888 3.848z" fill="#F4E4D2"/><path d="M34.916 5.934s-1.588 1.531-1.876 3.56c-.158 1.116-.038 3.502 1.11 5.207 1.328 1.972 2.45 2.249 2.45 2.249s-3.16 2.372-7.776 2.627c-6.572.364-8.725-1.699-12.055-3.919-2.871-1.914-5.084-2.48-8.189-1.465-3.348 1.093-5.197 5.239-5.197 5.237-.002.004.52-3.83 3.446-7.583C10.496 7.144 15.89 3.1 24.522 3.1c6.68 0 10.394 2.833 10.394 2.833zm-6.521 39.548s.694-.742.668-3.023c-.026-2.258-1.671-3.571-2.424-4.296-.366-.352-2-1.398-2.998-3.257-.426-.794-.848-1.917-.797-3.883.036-1.403-.306-3.88-.306-3.88s2.223-.81 5.219-.497c4.288.446 5.787 2.38 7.147 3.64 1.79 1.657 2.629 2.383 3.79 2.855 0 0-.352.01-1.31-.213-.546-.127-1.27-.325-2.182-.494-1.774-.328-3.699.026-4.586.465a7.116 7.116 0 00-2.137 1.603 4.864 4.864 0 00-1.018 1.907 5.26 5.26 0 011.275-1.68c.541-.49 1.333-.832 1.943-1.052 3.127-1.126 5.534-.199 7.07.277 1.24.383 3.086.356 3.74 1.396.867 1.378-.101 4.368-1.302 5.743-2.246 2.57-4.033 3.764-7.72 4.313-2.586.384-4.072.076-4.072.076z" fill="#C9A567"/><path d="M44.279 31.026c-.187-.828-.743-.957-1.218-.922-.77.056-1.355.526-1.066 1.672.13.517-.175 1.124-.712 1.251-.476.113-.905.193-.905.193a2.443 2.443 0 01-.6-.371 9.236 9.236 0 00-.853-.59c.107-.175.205-.355.292-.54.267-.553 1.047-.369 1.291-.32.486.095 1.278.002 1.407-1.015.05-.396.015-1.08-.677-1.405-.927-.434-1.18.053-1.5-.112-.163-.085.029-.454-.52-.94-.474-.418-1.148-.443-1.77.094-.361.31-.386 1.192-.261 1.445.37.753-.717 1.04-.717 1.04l-.2-.198c-.288-.287-.327-1.272-1.124-2.06-1.034-1.02-2.38-2.09-3.97-2.645-.51-.178-.6-.404-1.177-.44-.998-.064-1.138-.721-2.794-.589-.587.047-1.488.648-2.059.735-.08-.553.147-.6.147-1.176 0-1.526.2-1.162.736-2.498.984.14 1.988-.735 3.235-.735 3.643 0 5.603-2.064 8.543-4.066 1.08-.735 2.068-1.96 2.721-2.882a11.65 11.65 0 015.814 7.728 11.635 11.635 0 01-2.032 9.452.849.849 0 01-.031-.106z" fill="#9C6934"/><path d="M35.59 28.983c-.257-.253-.398-.695-.736-1.028-1.034-1.021-2.381-1.5-3.97-2.058-.524-.184-1.229-.059-1.913-.147a24.67 24.67 0 00-3.676-.147c-.64.026-1.275.11-1.899.252-.093-.51-.054-1.099-.054-1.674.001-1.479.285-2.944.837-4.317 1.124.163 2.259.246 3.395.25 3.643 0 5.517.584 8.456-1.418.827-.563-.855 1.308-1.397 1.803 3.51 1.904.809.132.809 4.517 0 1.719.125 2.67.147 3.967z" fill="#C9A567"/><path d="M26.336 47.32s1.232.086 3.985-.44c2.065-.394 3.983-1.168 6.101-2.38 1.297-.742 2.891-2.458 2.891-2.458s-3.287 2.394-6.745 2.98c-.501.086-4.026.236-4.026.236-.317.48-.685.925-1.096 1.327a3.397 3.397 0 01-1.11.735z" fill="#9C6934"/><path d="M41.403 29.072l-.017-.011a1.334 1.334 0 00-.147-.082c-.926-.434-1.18.053-1.499-.112-.163-.085.028-.454-.521-.94-.473-.418-1.147-.443-1.77.094-.36.31-.386 1.192-.261 1.445.37.753-.717 1.04-.717 1.04s-.02-.969-1.176-2.11c-1.034-1.021-2.675-1.797-4.265-2.352a14.431 14.431 0 00-.441-.147c-.025-.007-.122-.14-.147-.147-.118-.034-.17.03-.294 0-.007-.002 0 .007 0 0-.004-.578.136.158 0 .147-.017-.001-.425-.29-.441-.294-.142-.028-.43.158-.589.147-.142-.01.004 0 0 0a17.514 17.514 0 00-2.206-.147 7.402 7.402 0 01-.158-1.422c0-1.488.202-2.812.894-4.016a19.631 19.631 0 003.534-.465c.693-.152.06.695.73.465.48-.165 3.118-.814 3.971-1.322.457-.273-.744-.489-.501-.607.845-.409 1.658-.88 2.434-1.408a5.44 5.44 0 00.326-.24 8.23 8.23 0 014.78 5.457 8.221 8.221 0 01-1.4 7.116 1.183 1.183 0 00-.119-.09z" fill="#C9A567"/><path d="M39.74 28.867c-.112-.188-.137-.156-.33-.864-.144-.527-1.733-.876-2.35-.342-.36.31-.273 1.657-.148 1.91.37.753-.441.935-.441.935s-.462-.969-1.618-2.11a10.743 10.743 0 00-3.97-2.499c-.515-.18-1.056-.074-1.765-.147a9.258 9.258 0 01-.93-.103 8.669 8.669 0 01-.16-1.466 6.85 6.85 0 011.383-4.15c.608-.11 1.188-.208 1.761-.334.283-.061.02.25.299.174.919-.247 2.708-.725 3.676-1.175.133-.062-.21-.255-.092-.31a19.31 19.31 0 001.783-.94 6.985 6.985 0 014.869 4.75 6.975 6.975 0 01-1.487 6.636c-.195.047-.394.18-.48.035z" fill="#F4E4D2"/><path d="M39.219 27.927c-.473-.418-1.147-.442-1.77.094-.36.31-.386 1.192-.26 1.445.06.113.084.241.07.368-.362.15-.738.263-1.123.339l-1.539-1.524a11.954 11.954 0 00-3.75-2.437c-.45-.192-.882-.269-1.692-.438a8.017 8.017 0 01-.147-1.459 5.956 5.956 0 012.19-4.62 18.906 18.906 0 003.924-1.343 5.97 5.97 0 015.32 3.555 5.963 5.963 0 01-.957 6.323 1.469 1.469 0 00-.266-.303zM26.626 45.33c-.842 1.12-2.297 1.358-3.158 1.358-.833 0-1.549-.105-3.417-.602a38.477 38.477 0 01-2.967-.91c-.703-.25-.756-.43-.756-.43s.105-.105.584-.23c.453-.117.897-.215 1.33-.478 1.225-.747 1.397-1.053 1.665-1.618.102-.287.17-.584.205-.886.102-.607.265-.636.265-.636s.216-.02.469.383c.27.42.613.786 1.014 1.082.747.488 1.721.472 2.403.335a3.668 3.668 0 001.78-.853c.707-.593.841-.947.841-.947s.257-.068.498.478c.185.453.276.938.268 1.426 0 1.312-.757 2.172-1.024 2.527zm-.957-3.734c-1.034.733-1.702.746-2.479.699-.938-.058-1.54-.708-2.115-1.34-.574-.632-.593-1.177-.593-1.177.02-.294.022-.588.008-.882a4.374 4.374 0 00-.611-1.99 29.94 29.94 0 00-2.178-2.952c-1.398-1.623-2.745-2.391-3.35-3.1a4.529 4.529 0 01-.53-.952.906.906 0 01-.079-.397 3.026 3.026 0 001.566-2.538c.215-.086.448-.12.679-.099a5.101 5.101 0 001.924-.403c.793-.31 1.229-.485 1.78-.663.293-.096.594-.165.9-.206.419 1.272.631 2.602.628 3.94-.004.919.048 4.38 1.197 6.281.655 1.085 1.556 2.137 3.044 3.271.928.709 1.023 1.11 1.023 1.11s.055.783-.814 1.399zm-6.195-16.2a29.76 29.76 0 01-1.5.6 6.825 6.825 0 01-1.704.433c-.328.048-.66.05-.99.006a3.009 3.009 0 00-2.449-2.563 3.014 3.014 0 00-1.254.038c-.037-.073-.172-.385-.17-1.029a1.786 1.786 0 01.063-.511s.437-.064 1.302.188c.566.165 1.258.574 1.942.954.719.4.731.228.731.228s.328.027-.396-.895c-.639-.814-1.489-1.766-1.752-2.152a5.95 5.95 0 01-.945-2.144s1.156-.285 3.9 1.113c1.851.944 2.488 2.09 3.09 3.003.747 1.13.84 1.57 1.054 2.22 0 0-.079.145-.922.51zm-9.65 1.437a2.443 2.443 0 012.923-2.395 2.445 2.445 0 11-2.924 2.395zm3.794 0a1.347 1.347 0 00-2.303-.952 1.348 1.348 0 102.303.952zm-4.36.018a3.017 3.017 0 003.852 2.91c.119.08.223.178.308.293.172.23.402.976.402.976a3.08 3.08 0 00-.67.555c-.402.555-.406.83-.479 1.302-.062.401.02 1.35.02 1.35s-.313.37-1.025.085c-.929-.373-1.479-.157-2.135-.06-.528.078-1.1-.016-1.533.014-.404.03-.805.104-1.194.22-.89.238-1.177-.049-1.177-.049a10.857 10.857 0 01-.642-1.445c-.42-1.076-.755-1.771-1.062-2.843-.43-1.502-.382-2.479-.382-2.479s.042-.694.744-1.887c.443-.755 1.56-1.96 3.04-2.65a8.289 8.289 0 013.704-.773s.05.304.082.917c.02.351.02.654.02.765a3.03 3.03 0 00-1.873 2.8zm-2.54 8.124c.555-.038 1.055-.3 2.206-.209.84.067 1.086-.214 1.775-.153.69.062.736.191 1.216.25.285.036.574.005.845-.091 0 0 .114.182.11.788a4.377 4.377 0 01-.177 1.22c-.23.754-1.018 2.226-1.287 2.82-.284.624-.418 1.748-.418 1.748s-.623-.326-2.795-2.776a12.274 12.274 0 01-2.108-3.244s.078-.314.633-.353zm6.384 1.932c.46-1.618-.088-2.963-.057-3.944.038-1.216.96-1.394.96-1.394s.307-.117 1.06.514c.363.305 1.568 1.168 2.469 2.364.933 1.238 1.809 2.335 2.19 3.216.273.72.34 1.5.195 2.255-.138.654-.06 1.884-.855 2.82-.727.859-1.483 1.002-2.245 1.302-.52.188-1.069.28-1.621.275a8.102 8.102 0 01-.843-.382c-.836-.425-1.914-1.158-2.24-1.474a3.125 3.125 0 01-.535-.709 5.028 5.028 0 01.105-1.378c.26-1.226 1.083-2.288 1.417-3.465z" fill="#B92A3D"/><path d="M2.835 29.049s.125-1.369.364-2c.211-.559.586-1.49 1.053-2.097.545-.708 1.553-1.508 1.553-1.508s.38-2.76.648-3.36c.268-.6 1.598-3.752 2.249-4.16.65-.409 2.307-1.226 2.792-1.315.485-.09 1.225-.27 1.225-.27s-1.598-.206-2.59 0c-2.948.615-4.046 2.031-4.876 3.065-1.415 1.762-2.514 4.275-2.672 6.467-.238 3.286.254 5.178.254 5.178z" fill="#9C6934"/><path d="M5.72 23.512c.212-.205.45-.382.708-.526.447-.226.905-.434.905-.434s.602-4.184.994-4.73c.392-.547 1.578-2.062 2.172-2.489.69-.496 2.32-.964 2.32-.964s-1.755-.417-3.67.844c-1.525 1.004-2.54 2.322-3.1 4.45-.466 1.764-.329 3.85-.329 3.85z" fill="#C9A567"/><path d="M12.818 14.37s-.8.685-.902 3.107c-.068 1.58.22 2.527 1.08 3.669.621.823 1.264 1.608 1.264 1.608s-1.442-1.018-3.675-.88c-2.265.138-3.37.732-3.37.732a11.84 11.84 0 01.186-2.749c.28-1.3.61-2.43 1.92-3.787 1.877-1.94 3.497-1.7 3.497-1.7z" fill="#F4E4D2"/></g></svg>