<svg width="16" height="16" fill="none" xmlns="http://www.w3.org/2000/svg"><path d="M8 11.942a.586.586 0 00.602-.602.586.586 0 00-.602-.603.586.586 0 00-.603.603.586.586 0 00.602.602zm-.493-2.974h1.047V3.836H7.507v5.132zm.498 6.949a7.675 7.675 0 01-3.084-.623 8.041 8.041 0 01-2.515-1.7 8.034 8.034 0 01-1.7-2.514 7.677 7.677 0 01-.623-3.085c0-1.094.208-2.121.623-3.083.416-.962.982-1.8 1.7-2.512A8.093 8.093 0 014.92.707 7.677 7.677 0 018.005.083a7.69 7.69 0 013.083.624c.962.415 1.8.98 2.512 1.692a7.993 7.993 0 011.693 2.513c.415.963.623 1.99.623 3.083a7.675 7.675 0 01-.623 3.083 8.069 8.069 0 01-1.692 2.513 7.992 7.992 0 01-2.513 1.7 7.667 7.667 0 01-3.083.626zm.002-1.047c1.909 0 3.53-.668 4.863-2.004 1.333-1.336 2-2.96 2-4.873 0-1.909-.666-3.53-1.998-4.863-1.33-1.333-2.955-2-4.872-2-1.908 0-3.53.666-4.866 1.997C1.798 4.46 1.13 6.083 1.13 8c0 1.908.668 3.53 2.004 4.866 1.336 1.336 2.96 2.004 4.873 2.004z" fill="#A31D1C"/></svg>