<svg width="36" height="36" fill="none" xmlns="http://www.w3.org/2000/svg"><path d="M18 11.127H8.838v12.218h1.527a2.676 2.676 0 012.673-2.672 2.676 2.676 0 012.673 2.672H18V11.127zm5.346 13.746a1.527 1.527 0 100-3.055 1.527 1.527 0 000 3.055z" fill="#EE842C"/><path d="M14.564 23.345a1.526 1.526 0 11-3.052.002 1.526 1.526 0 013.052-.002zm11.929-6.647l-2.517-2.516h-4.448v9.163h1.145c0-1.473 1.2-2.672 2.673-2.672a2.676 2.676 0 012.673 2.672h1.145v-5.027c0-.632-.256-1.205-.671-1.62z" fill="#EE842C"/><circle cx="18" cy="18" r="17.35" stroke="#EE842C" stroke-width="1.3"/></svg>