<svg width="40" height="38" fill="none" xmlns="http://www.w3.org/2000/svg"><path d="M34.463 35.317H9.95a2.383 2.383 0 00-2.387-2.385v-8.398A2.389 2.389 0 009.95 22.15h24.517a2.384 2.384 0 002.385 2.384v8.398a2.389 2.389 0 00-2.388 2.385z" stroke="#A31D1C" stroke-width="1.3" stroke-linecap="round" stroke-linejoin="round"/><path d="M5.39 20.31h33.63v16.85H5.39V20.31z" stroke="#A31D1C" stroke-width="1.3" stroke-linecap="round" stroke-linejoin="round"/><path d="M22.203 32.49a3.76 3.76 0 003.762-3.757 3.76 3.76 0 00-3.762-3.757 3.76 3.76 0 00-3.76 3.757 3.76 3.76 0 003.76 3.757zm9.073-1.582a2.176 2.176 0 10-2.176-2.175c0 1.201.974 2.175 2.176 2.175zm-17.587 0a2.176 2.176 0 10-2.177-2.175c0 1.201.975 2.175 2.177 2.175zm19.845-14.882l-6.477 4.283H6.174a2.364 2.364 0 00-.358-1.732L26.267 5.049a2.385 2.385 0 003.296.684l4.642 7.001a2.382 2.382 0 00-.67 3.292z" stroke="#A31D1C" stroke-width="1.3" stroke-linecap="round" stroke-linejoin="round"/><path d="M38.351 15.048l-7.949 5.261H5.388v5.86L1 19.556 29.034 1l9.317 14.048z" stroke="#A31D1C" stroke-width="1.3" stroke-linecap="round" stroke-linejoin="round"/></svg>