<svg width="44" height="31" fill="none" xmlns="http://www.w3.org/2000/svg"><path d="M26.166 13.921c-.27 0-.572.067-.807.134.907.336 1.546 1.176 1.546 2.184 0 1.008-.639 1.848-1.546 2.184.27.1.538.134.807.134 1.31 0 2.351-1.041 2.351-2.318 0-1.277-1.075-2.318-2.351-2.318zm-2.721 0c-1.31 0-2.352 1.041-2.352 2.318 0 1.276 1.041 2.318 2.352 2.318 1.31 0 2.351-1.041 2.351-2.318 0-1.277-1.075-2.318-2.351-2.318zm-.303 11.724v1.68h4.77v-1.68h-4.77zm-5.98 0v1.68h4.77v-1.68h-4.77zm-5.98 0v1.68h4.771v-1.68h-4.77zm-5.979 0v1.68h4.77v-1.68h-4.77zm6.114-7.928H5.304a.602.602 0 00-.605.605v3.494c0 .335.269.604.605.604h5.98a.602.602 0 00.604-.605v-3.493c.034-.336-.235-.605-.57-.605zm11.825 7.928v1.68h4.77v-1.68h-4.77zm-5.98 0v1.68h4.77v-1.68h-4.77zm-5.98 0v1.68h4.771v-1.68h-4.77zm.135-7.928H5.304a.602.602 0 00-.605.605v3.494c0 .335.269.604.605.604h5.98a.602.602 0 00.604-.605v-3.493c.034-.336-.235-.605-.57-.605zm-6.114 7.928v1.68h4.77v-1.68h-4.77zm0 0v1.68h4.77v-1.68h-4.77zm6.114-7.928H5.304a.602.602 0 00-.605.605v3.494c0 .335.269.604.605.604h5.98a.602.602 0 00.604-.605v-3.493c.034-.336-.235-.605-.57-.605zm-.134 7.928v1.68h4.77v-1.68h-4.77zm5.98 0v1.68h4.77v-1.68h-4.77zm5.98 0v1.68h4.77v-1.68h-4.77zm0 1.68h4.77v-1.68h-4.77v1.68zm-5.98 0h4.77v-1.68h-4.77v1.68zm-5.98 0h4.77v-1.68h-4.77v1.68zm.134-4.938a.602.602 0 00.605-.605v-3.46a.602.602 0 00-.605-.605H5.304a.602.602 0 00-.605.605v3.494c0 .335.269.604.605.604h6.013v-.033zm-6.114 4.938h4.77v-1.68h-4.77v1.68zm17.94 0h4.77v-1.68h-4.77v1.68zm-5.98 0h4.77v-1.68h-4.77v1.68zm-5.98 0h4.77v-1.68h-4.77v1.68zm.134-4.938a.602.602 0 00.605-.605v-3.46a.602.602 0 00-.605-.605H5.304a.602.602 0 00-.605.605v3.494c0 .335.269.604.605.604h6.013v-.033zm-6.114 4.938h4.77v-1.68h-4.77v1.68zm0-1.68v1.68h4.77v-1.68h-4.77zm6.114-7.928H5.304a.602.602 0 00-.605.605v3.494c0 .335.269.604.605.604h5.98a.602.602 0 00.604-.605v-3.493c.034-.336-.235-.605-.57-.605zm-.134 7.928v1.68h4.77v-1.68h-4.77zm5.98 0v1.68h4.77v-1.68h-4.77zm5.98 0v1.68h4.77v-1.68h-4.77zm0 0v1.68h4.77v-1.68h-4.77zm-5.98 0v1.68h4.77v-1.68h-4.77zm-5.98 0v1.68h4.77v-1.68h-4.77zm.134-7.928H5.304a.602.602 0 00-.605.605v3.494c0 .335.269.604.605.604h5.98a.602.602 0 00.604-.605v-3.493c.034-.336-.235-.605-.57-.605zm-6.114 7.928v1.68h4.77v-1.68h-4.77zM41.82.181H13.064c-.94 0-1.713.74-1.713 1.68v8.533H2.314C1.306 10.394.5 11.2.5 12.174v16.864c0 .974.806 1.78 1.814 1.78h28.488c1.007 0 1.814-.806 1.814-1.78V20.64h9.204c.94 0 1.68-.74 1.68-1.68V1.827c0-.907-.773-1.646-1.68-1.646zM31.406 29.038a.602.602 0 01-.604.605H2.314a.602.602 0 01-.605-.605V12.174c0-.336.27-.605.605-.605h28.488c.335 0 .604.27.604.605v16.864zM42.291 18.96a.48.48 0 01-.47.47h-9.205v-7.256c0-1.008-.807-1.78-1.814-1.78H12.594V8.31H42.29v10.65zm0-14.781H12.594V1.827a.48.48 0 01.47-.47H41.82a.46.46 0 01.47.47V4.18z" fill="#A31D1C"/></svg>