<svg width="36" height="36" fill="none" xmlns="http://www.w3.org/2000/svg"><circle cx="18" cy="18" r="17.35" stroke="#EE842C" stroke-width="1.3"/><path d="M26.097 16.239l-.99-4.204V9.193a.5.5 0 00-.498-.499H10.39a.498.498 0 00-.498.499V12l-.99 4.238a.49.49 0 00-.013.114v1.661a2.123 2.123 0 001.307 1.958v5.835a.499.499 0 00.498.499h13.61a.497.497 0 00.498-.499v-5.835a2.123 2.123 0 001.307-1.958v-1.661a.488.488 0 00-.013-.114zm-1.792-.385H10.016l.77-3.297h13.42l.777 3.297h-.678zm-8.057 9.455v-4.613h-3.84v4.613h-1.215v-5.185a2.118 2.118 0 001.44-.746 2.118 2.118 0 003.245 0 2.117 2.117 0 003.244 0 2.118 2.118 0 003.245 0 2.118 2.118 0 001.44.746v5.185h-7.56z" fill="#EE842C"/><path d="M22.532 20.582h-4.734a.498.498 0 00-.498.498v2.565a.5.5 0 00.498.498h4.734a.496.496 0 00.499-.498V21.08a.498.498 0 00-.499-.498zm-.498 2.564h-3.738v-1.568h3.738v1.568z" fill="#EE842C"/></svg>