<svg width="27" height="28" fill="none" xmlns="http://www.w3.org/2000/svg"><mask id="a" style="mask-type:alpha" maskUnits="userSpaceOnUse" x="0" y="0" width="27" height="28"><path fill="#D9D9D9" d="M0 .5h27v27H0z"/></mask><g mask="url(#a)"><path d="M13.5 19.433c1.992-1.591 3.498-3.12 4.516-4.588 1.018-1.467 1.527-2.863 1.527-4.188 0-1.13-.206-2.09-.619-2.88-.412-.79-.922-1.431-1.529-1.925a5.93 5.93 0 00-1.965-1.074c-.703-.222-1.347-.333-1.93-.333s-1.226.11-1.93.333c-.704.223-1.36.58-1.966 1.074-.607.494-1.116 1.135-1.529 1.925-.412.79-.619 1.75-.619 2.88 0 1.325.51 2.721 1.528 4.188 1.018 1.467 2.523 2.997 4.516 4.588zm0 1.791c-2.515-1.887-4.386-3.703-5.615-5.45-1.228-1.747-1.842-3.452-1.842-5.116 0-1.257.225-2.359.675-3.307.45-.948 1.032-1.743 1.745-2.386a7.262 7.262 0 012.404-1.45 7.675 7.675 0 012.632-.484c.867 0 1.744.162 2.633.485a7.26 7.26 0 012.404 1.449c.714.643 1.295 1.439 1.745 2.387.45.948.675 2.052.675 3.31 0 1.666-.614 3.371-1.842 5.116-1.229 1.744-3.1 3.56-5.614 5.446zm.005-8.904c.507 0 .939-.18 1.294-.538a1.78 1.78 0 00.532-1.3c0-.507-.178-.938-.534-1.293a1.772 1.772 0 00-1.299-.533c-.505 0-.936.178-1.294.535-.357.356-.536.79-.536 1.299 0 .505.18.936.538 1.293a1.77 1.77 0 001.299.537zM6.043 24.969v-1.414h14.913v1.414H6.043z" fill="#A31D1C"/></g></svg>