<svg width="21" height="23" fill="none" xmlns="http://www.w3.org/2000/svg"><path d="M2.697 22.187c-.483 0-.898-.172-1.242-.517a1.694 1.694 0 01-.518-1.242V4.548c0-.484.173-.898.518-1.242a1.694 1.694 0 011.242-.518h1.904V.683h1.522v2.105h8.798V.683h1.485v2.105h1.897c.483 0 .898.173 1.242.518.345.344.517.758.517 1.242v15.88c0 .483-.172.897-.517 1.242a1.694 1.694 0 01-1.242.517H2.697zm0-1.413h15.606a.33.33 0 00.238-.108.33.33 0 00.108-.238V9.459H2.351v10.969a.33.33 0 00.108.238.33.33 0 00.238.108zM2.351 8.046h16.298V4.548a.33.33 0 00-.108-.238.33.33 0 00-.238-.108H2.697a.33.33 0 00-.238.108.33.33 0 00-.108.238v3.498zm8.149 5.79a.96.96 0 01-.704-.29.959.959 0 01-.291-.705c0-.275.097-.51.29-.704a.96.96 0 01.705-.29.96.96 0 01.704.29.96.96 0 01.291.704.96.96 0 01-.29.704.96.96 0 01-.705.291zm-4.5 0a.96.96 0 01-.704-.29.959.959 0 01-.291-.705c0-.275.097-.51.29-.704a.96.96 0 01.705-.29.96.96 0 01.704.29.96.96 0 01.291.704.96.96 0 01-.29.704.96.96 0 01-.705.291zm9 0a.96.96 0 01-.704-.29.959.959 0 01-.291-.705c0-.275.097-.51.29-.704a.96.96 0 01.705-.29.96.96 0 01.704.29.96.96 0 01.291.704.96.96 0 01-.29.704.96.96 0 01-.705.291zm-4.5 4.414a.96.96 0 01-.704-.291.96.96 0 01-.291-.704.96.96 0 01.29-.704.96.96 0 01.705-.291.96.96 0 01.704.29.96.96 0 01.291.705.96.96 0 01-.29.704.96.96 0 01-.705.29zm-4.5 0a.96.96 0 01-.704-.291.96.96 0 01-.291-.704.96.96 0 01.29-.704A.96.96 0 016 16.26a.96.96 0 01.704.29.96.96 0 01.291.705.96.96 0 01-.29.704.96.96 0 01-.705.29zm9 0a.96.96 0 01-.704-.291.96.96 0 01-.291-.704.96.96 0 01.29-.704.96.96 0 01.705-.291.96.96 0 01.704.29.96.96 0 01.291.705.96.96 0 01-.29.704.96.96 0 01-.705.29z" fill="#B92A3D"/></svg>