<svg width="27" height="28" fill="none" xmlns="http://www.w3.org/2000/svg"><mask id="a" style="mask-type:alpha" maskUnits="userSpaceOnUse" x="0" y="0" width="27" height="28"><path fill="#D9D9D9" d="M0 .5h27v27H0z"/></mask><g mask="url(#a)"><path d="M13.486 24.657a9.319 9.319 0 01-3.715-.747 9.626 9.626 0 01-3.035-2.037 9.636 9.636 0 01-2.046-3.031 9.287 9.287 0 01-.753-3.727c0-1.325.25-2.566.753-3.723a9.763 9.763 0 012.046-3.036 9.55 9.55 0 013.035-2.047 9.32 9.32 0 013.715-.747 9.33 9.33 0 013.713.747 9.622 9.622 0 013.038 2.047 9.63 9.63 0 012.047 3.036c.498 1.158.747 2.4.747 3.724a9.345 9.345 0 01-.747 3.727 9.511 9.511 0 01-2.046 3.03 9.7 9.7 0 01-3.04 2.037 9.307 9.307 0 01-3.712.747zm3.465-5.086l.995-.995-3.71-3.706V9.5h-1.413v5.936l4.128 4.135zM6.335 3.738l.995.988-4.265 4.188-.995-.995 4.265-4.181zm14.298 0l4.272 4.181-.995.995-4.265-4.188.988-.988zm-7.147 19.506c2.259 0 4.179-.791 5.76-2.373 1.581-1.581 2.372-3.5 2.372-5.759 0-2.26-.79-4.18-2.372-5.763-1.582-1.582-3.501-2.373-5.76-2.373-2.26 0-4.18.79-5.763 2.373-1.582 1.582-2.373 3.503-2.373 5.762 0 2.26.791 4.18 2.373 5.76 1.583 1.582 3.503 2.373 5.763 2.373z" fill="#A31D1C"/></g></svg>