<svg width="27" height="27" fill="none" xmlns="http://www.w3.org/2000/svg"><mask id="a" style="mask-type:alpha" maskUnits="userSpaceOnUse" x="0" y="0" width="27" height="27"><path fill="#D9D9D9" d="M0 0h27v27H0z"/></mask><g mask="url(#a)"><path d="M6.822 24.187c-.483 0-.898-.172-1.242-.517a1.694 1.694 0 01-.518-1.242V9.072c0-.483.173-.898.518-1.242a1.694 1.694 0 011.242-.518h2.596v-.418c0-1.137.396-2.102 1.188-2.894.792-.792 1.757-1.188 2.894-1.188 1.137 0 2.102.396 2.894 1.188.792.792 1.188 1.757 1.188 2.894v.418h2.596c.483 0 .898.173 1.242.518.345.344.517.759.517 1.242v13.356c0 .483-.172.898-.517 1.242a1.694 1.694 0 01-1.242.517H6.822zm0-1.413h13.356a.33.33 0 00.238-.108.33.33 0 00.108-.238V9.072a.33.33 0 00-.108-.238.33.33 0 00-.238-.108h-2.596v2.668c0 .2-.068.369-.204.504a.689.689 0 01-.506.203.688.688 0 01-.703-.707V8.726h-5.337v2.668c0 .2-.068.369-.204.504a.689.689 0 01-.506.203.688.688 0 01-.703-.707V8.726H6.821a.33.33 0 00-.238.108.33.33 0 00-.108.238v13.356a.33.33 0 00.108.238.33.33 0 00.238.108zm4.01-15.462h5.336v-.418c0-.748-.257-1.38-.772-1.895-.516-.515-1.148-.773-1.896-.773-.749 0-1.38.258-1.896.773-.515.515-.772 1.147-.772 1.895v.418z" fill="#B92A3D"/></g></svg>