<svg width="53" height="64" fill="none" xmlns="http://www.w3.org/2000/svg"><path fill-rule="evenodd" clip-rule="evenodd" d="M43 27.5C43 36.613 35.613 44 26.5 44S10 36.613 10 27.5C10 18.388 17.387 11 26.5 11S43 18.387 43 27.5z" fill="#36312C"/><path fill-rule="evenodd" clip-rule="evenodd" d="M40.044 31.668a2.655 2.655 0 00-.472.035c-.2.019-.204-.116-.25-.323-.124-.547-.587-.631-.9-.608-.51.037-.896.608-.802 1.2.056.347-.018.548-.372.632-.314.075-.598.127-.598.127s-.174.128-.396-.05a1.86 1.86 0 01-.368-.39s.085-.036.192-.26c.176-.364.497-.049.658-.017.32.063.844-.29.929-.96.033-.262.01-.81-.447-1.025-.612-.286-.779.132-.99.023-.107-.056.116-.396-.247-.717-.312-.276-1.048-.292-1.46.062-.237.204-.253.884-.171 1.05.244.498-.376.493-.376.493s-.208-.348-.97-1.102c-.683-.674-1.572-1.379-2.621-1.746-.467-.163-1.052-.227-1.747-.29-.54-.05-1.261.08-2.054.09-.763.008-1.462.24-1.815.31a8.363 8.363 0 01.463-4.198c.21.039.44.078.69.114.656.094 1.49.482 2.327.482 2.405 0 4.952-.812 6.892-2.134.692-.472 1.139-1.592 1.569-2.193.186-.26.334-.487.431-.643a8.405 8.405 0 014.203 8.835 8.398 8.398 0 01-1.298 3.203zm-8.602-18.147c-9.78-3.47-16.192 4.46-16.192 4.46s9.622 1.78 10.557 2.311c.935.531 6.811 2.743 6.811 2.743s1.956-.813 3.308-2.276c1.435-1.553 1.502-2.88 1.502-2.88s-1.45-2.749-5.986-4.358zm2.703 5.034a.742.742 0 110-1.484.742.742 0 010 1.484zM18.153 22.66a2.779 2.779 0 011.19.052c1.331.34 2.3.856 3.222 1.914 1.535 1.762 2.101 3.898 2.122 6.993.02 2.88 1.495 3.755 2.508 4.763.936.93 1.65 1.313 1.643 2.968a3.027 3.027 0 01-2.426 2.944c-2.603.569-6.76-1.385-8.848-2.85-2-1.403-3.478-3.554-4.161-4.903-.708-1.398-1.081-2.132-1.21-3.137-.076-.587-.076-1.832.361-2.812.652-1.46 2.77-2.584 3.783-2.746a8.506 8.506 0 011.432-.083c.613.009 1.41.783 1.902.915.535.144.59.406.817.146.398-.457-.92-1.447-1.366-2.134-.32-.492-.644-.568-.746-.835a3.378 3.378 0 01-.223-.904c-.026-.279 0-.29 0-.29z" fill="#F4E4D2"/><path fill-rule="evenodd" clip-rule="evenodd" d="M40.17 32.97c-.291.197-.664-.17-1.247.064-.29.116-.434.707-.598 1.162-.164.455-.523 2.333-1.594 3.657l-1.754-.94-6.926-1.788s.315-.726.786-1.22c.36-.378 1.143-1.198 3.057-1.301 1.642-.088 2.375.383 3.69.606.64.102 1.296.03 1.898-.21.666-.26.523-1.044.464-1.355-.06-.312.308-.649.758-.43.312.151.268.549.417.67.22.177.501.087.754.028s.518.103.592.42c.064.275-.054.474-.298.638zm-3.6-1.514c-.212-.055-.635-.157-.86.114-.112.133-.253.56-.253.56s-.315-.176-.524-.322a6.828 6.828 0 01-.575-.46s.417-.14.5-.33c.145-.334-.171-.934.062-1.237.194-.252.581-.336.822-.089.214.221.07.512.353.67.276.153.563-.184.931-.038.244.096.383.256.383.631 0 .424-.505.588-.84.501zm-.444 1.464a2.226 2.226 0 01-.65-.054c-.48-.114-1.333-.382-1.333-.382S31.4 30.558 30.44 30.28c-.96-.278-3.954-1.365-4.523-1.251a6.173 6.173 0 01-1.014.12l-.093-.61s1.051-.429 3.782-.267c1.343.079 3.06.753 4.307 2.109 1.695 1.843 3.226 2.54 3.226 2.54z" fill="#F4E4D2"/><path fill-rule="evenodd" clip-rule="evenodd" d="M33.044 14.916s-1.048 1.011-1.238 2.35c-.104.737-.025 2.311.733 3.437.876 1.301 1.617 1.484 1.617 1.484s-2.085 1.566-5.132 1.734c-4.338.24-5.76-1.122-7.957-2.587-1.895-1.263-3.355-1.636-5.404-.967-2.21.722-3.43 3.458-3.43 3.457-.002.002.343-2.528 2.274-5.005 2.42-3.104 5.979-5.773 11.677-5.773 4.41 0 6.86 1.87 6.86 1.87zm-4.303 26.102s.458-.49.44-1.995c-.017-1.49-1.103-2.357-1.6-2.835-.241-.233-1.319-.923-1.978-2.15-.281-.524-.56-1.266-.526-2.563.024-.926-.203-2.56-.203-2.56s1.468-.535 3.445-.329c2.83.295 3.82 1.572 4.717 2.403 1.182 1.094 1.735 1.573 2.502 1.884 0 0-.232.007-.865-.14-.36-.084-.838-.215-1.44-.326-1.171-.217-2.441.016-3.027.306-.532.26-1.01.62-1.41 1.058a3.21 3.21 0 00-.672 1.259c.203-.423.489-.8.841-1.108.358-.325.88-.55 1.283-.695 2.064-.743 3.653-.131 4.666.182.818.253 2.037.236 2.468.922.573.91-.066 2.883-.859 3.79-1.482 1.697-2.662 2.485-5.096 2.847-1.706.253-2.686.05-2.686.05z" fill="#C9A567"/><path fill-rule="evenodd" clip-rule="evenodd" d="M39.225 31.477c-.124-.547-.49-.631-.804-.608-.508.037-.894.347-.704 1.103.086.341-.115.742-.47.826-.313.075-.597.127-.597.127a1.615 1.615 0 01-.396-.245c-.18-.14-.368-.27-.563-.39a3.38 3.38 0 00.193-.355c.176-.365.691-.244.852-.212.32.063.844.002.929-.67.033-.261.01-.713-.447-.927-.612-.286-.779.035-.99-.074-.107-.056.019-.3-.344-.62-.312-.276-.757-.292-1.168.062-.238.204-.254.787-.172.954.244.497-.473.686-.473.686l-.132-.13c-.19-.19-.216-.84-.742-1.36-.682-.674-1.57-1.38-2.62-1.746-.337-.117-.396-.267-.777-.29-.659-.043-.751-.476-1.844-.389-.387.031-.982.428-1.359.485-.053-.365.097-.396.097-.776 0-1.008.133-.767.486-1.649.65.093 1.312-.485 2.135-.485 2.405 0 3.698-1.362 5.638-2.684.713-.485 1.365-1.293 1.796-1.901a7.688 7.688 0 013.845 8.365 7.683 7.683 0 01-1.348 2.973.548.548 0 01-.021-.07z" fill="#9C6934"/><path fill-rule="evenodd" clip-rule="evenodd" d="M33.489 30.13c-.17-.168-.262-.46-.485-.68-.683-.674-1.572-.99-2.621-1.358-.345-.121-.81-.038-1.262-.097a16.281 16.281 0 00-2.426-.097 6.962 6.962 0 00-1.253.166c-.062-.336-.036-.725-.036-1.104 0-.976.188-1.944.552-2.85.742.108 1.49.163 2.24.165 2.405 0 3.642.386 5.582-.935.545-.372-.564.863-.922 1.19 2.316 1.256.534.086.534 2.98 0 1.135.082 1.763.097 2.62z" fill="#C9A567"/><path fill-rule="evenodd" clip-rule="evenodd" d="M27.38 42.231s.814.057 2.631-.29c1.363-.26 2.629-.771 4.027-1.571.855-.49 1.908-1.622 1.908-1.622s-2.17 1.58-4.452 1.967c-.33.056-2.657.155-2.657.155-.21.317-.452.61-.724.876-.21.209-.458.373-.732.485z" fill="#9C6934"/><path fill-rule="evenodd" clip-rule="evenodd" d="M37.325 30.188l-.011-.008a.875.875 0 00-.097-.054c-.612-.286-.78.035-.99-.074-.108-.056.019-.3-.344-.62-.312-.276-.757-.292-1.168.062-.238.204-.255.787-.172.954.244.497-.473.686-.473.686s-.014-.64-.777-1.393c-.682-.674-1.765-1.185-2.814-1.552a9.636 9.636 0 00-.292-.097c-.016-.005-.08-.092-.097-.097-.077-.023-.111.02-.194 0-.004-.001 0 .004 0 0-.002-.381.09.104 0 .097-.01 0-.28-.192-.291-.194-.094-.018-.283.104-.388.097a11.635 11.635 0 00-1.456-.097 4.886 4.886 0 01-.105-.938c0-.983.134-1.856.59-2.65a12.957 12.957 0 002.333-.308c.457-.1.04.459.482.307.317-.109 2.057-.537 2.62-.873.302-.18-.49-.322-.33-.4.557-.27 1.094-.58 1.606-.93.073-.048.144-.102.215-.157a5.432 5.432 0 013.239 6.056 5.427 5.427 0 01-1.007 2.242.778.778 0 00-.08-.06z" fill="#C9A567"/><path fill-rule="evenodd" clip-rule="evenodd" d="M36.228 30.052c-.073-.124-.09-.103-.218-.57-.094-.348-1.143-.578-1.551-.226-.237.206-.18 1.094-.097 1.261.244.497-.291.617-.291.617s-.305-.64-1.068-1.393a7.09 7.09 0 00-2.62-1.649c-.34-.118-.697-.049-1.165-.097a6.117 6.117 0 01-.614-.068 5.72 5.72 0 01-.106-.967 4.521 4.521 0 01.913-2.74c.401-.073.784-.137 1.163-.22.186-.04.013.165.197.115.606-.163 1.787-.478 2.426-.776.088-.04-.138-.168-.06-.204.402-.186.795-.393 1.176-.62a4.61 4.61 0 013.293 5.452 4.606 4.606 0 01-1.06 2.062c-.13.032-.26.119-.318.023z" fill="#F4E4D2"/><path fill-rule="evenodd" clip-rule="evenodd" d="M35.884 29.432c-.312-.276-.757-.292-1.169.062-.237.204-.254.787-.172.954.04.074.057.159.048.243-.24.099-.488.174-.742.223-.21-.208-.56-.556-1.015-1.005a7.89 7.89 0 00-2.475-1.61c-.297-.125-.583-.176-1.117-.288a5.293 5.293 0 01-.098-.963A3.931 3.931 0 0130.59 24c.893-.2 1.762-.497 2.59-.887a3.941 3.941 0 013.802 4.525 3.937 3.937 0 01-.922 1.995.97.97 0 00-.176-.2zm-8.311 11.485c-.555.74-1.516.898-2.084.898-.55 0-1.022-.07-2.255-.398a25.39 25.39 0 01-1.959-.6c-.463-.165-.499-.285-.499-.285s.07-.07.386-.151c.299-.078.592-.142.878-.316.808-.493.922-.695 1.099-1.068a2.66 2.66 0 00.135-.585c.067-.4.175-.419.175-.419s.143-.013.31.253c.177.276.404.518.669.713.493.323 1.136.312 1.586.222a2.422 2.422 0 001.174-.563c.468-.392.556-.626.556-.626s.17-.044.329.317a2.4 2.4 0 01.176.94c0 .866-.5 1.434-.675 1.668zm-.631-2.463c-.682.483-1.124.492-1.636.46-.62-.037-1.017-.467-1.396-.883-.38-.417-.392-.778-.392-.778.013-.193.015-.388.006-.582a2.887 2.887 0 00-.404-1.312 19.776 19.776 0 00-1.437-1.949c-.923-1.072-1.812-1.578-2.212-2.047a2.989 2.989 0 01-.35-.628.597.597 0 01-.051-.261 1.996 1.996 0 001.034-1.676.97.97 0 01.448-.065 3.368 3.368 0 001.27-.266c.523-.205.81-.32 1.174-.437a3.28 3.28 0 01.594-.136c.276.839.417 1.717.415 2.6-.003.606.032 2.89.79 4.145.432.716 1.027 1.41 2.009 2.16.612.467.675.732.675.732s.036.516-.537.923zm-4.09-10.693c-.235.102-.619.261-.99.396-.36.144-.738.24-1.124.286a2.343 2.343 0 01-.652.004 1.984 1.984 0 00-1.617-1.692 1.988 1.988 0 00-.828.026c-.024-.049-.113-.255-.112-.68a1.18 1.18 0 01.041-.337s.289-.042.86.125c.373.108.83.378 1.282.63.474.263.482.15.482.15s.216.017-.261-.59c-.422-.538-.983-1.167-1.157-1.422a3.928 3.928 0 01-.623-1.415s.762-.188 2.573.735c1.222.623 1.642 1.38 2.04 1.982.493.745.555 1.036.696 1.465 0 0-.052.096-.61.337zm-6.368.95a1.612 1.612 0 012.755-1.14 1.613 1.613 0 11-2.755 1.14zm2.504 0a.89.89 0 10-1.78 0 .89.89 0 001.78 0zm-2.878.01a1.99 1.99 0 001.629 1.965c.304.057.617.042.914-.043a.813.813 0 01.203.192c.114.152.265.645.265.645a2.03 2.03 0 00-.442.366c-.265.367-.268.548-.316.86-.04.264.013.89.013.89s-.207.245-.676.057c-.613-.246-.976-.104-1.41-.04-.348.051-.726-.01-1.01.01a3.79 3.79 0 00-.79.144c-.587.158-.776-.032-.776-.032a7.155 7.155 0 01-.424-.954c-.277-.71-.498-1.168-.7-1.876-.285-.992-.253-1.636-.253-1.636s.028-.458.49-1.246c.294-.498 1.03-1.293 2.007-1.749a5.472 5.472 0 012.445-.51s.033.2.055.605c.012.232.013.432.012.506a2 2 0 00-1.236 1.847zm-1.676 5.363c.367-.026.696-.198 1.456-.138.554.044.717-.142 1.172-.101.455.04.485.126.802.165.188.023.38.003.558-.06 0 0 .075.12.073.52-.001.272-.04.543-.117.805-.153.497-.672 1.469-.85 1.86-.187.413-.276 1.155-.276 1.155s-.41-.215-1.844-1.832a8.097 8.097 0 01-1.391-2.141s.051-.208.417-.233zm4.214 1.274c.303-1.067-.059-1.955-.038-2.602.025-.803.633-.92.633-.92s.203-.078.7.339c.24.201 1.035.771 1.63 1.56.615.817 1.193 1.541 1.445 2.123.18.474.224.99.129 1.488-.091.432-.04 1.243-.564 1.862-.48.566-.98.66-1.483.859a3.061 3.061 0 01-1.07.18 5.385 5.385 0 01-.555-.251c-.553-.28-1.264-.765-1.479-.973a2.063 2.063 0 01-.353-.468 3.324 3.324 0 01.07-.91c.17-.808.714-1.51.935-2.287z" fill="#B92A3D"/><path fill-rule="evenodd" clip-rule="evenodd" d="M11.871 30.172s.082-.903.24-1.32c.14-.369.387-.984.695-1.384.36-.467 1.025-.995 1.025-.995s.25-1.822.428-2.218c.177-.396 1.054-2.476 1.484-2.745.43-.27 1.523-.81 1.843-.868.32-.059.808-.178.808-.178s-1.055-.136-1.71 0c-1.945.405-2.67 1.34-3.217 2.023-.934 1.163-1.66 2.821-1.764 4.268-.157 2.168.168 3.417.168 3.417z" fill="#9C6934"/><path fill-rule="evenodd" clip-rule="evenodd" d="M13.776 26.518c.14-.136.297-.253.468-.348.294-.149.596-.286.596-.286s.398-2.761.657-3.122c.258-.36 1.041-1.36 1.434-1.642.455-.328 1.53-.636 1.53-.636s-1.158-.276-2.421.556c-1.007.663-1.676 1.533-2.047 2.937-.308 1.165-.217 2.54-.217 2.54z" fill="#C9A567"/><path fill-rule="evenodd" clip-rule="evenodd" d="M18.461 20.484s-.528.452-.596 2.05c-.044 1.043.146 1.669.714 2.422.41.543.834 1.061.834 1.061s-.952-.671-2.426-.58c-1.495.09-2.223.483-2.223.483a7.8 7.8 0 01.122-1.814c.185-.859.402-1.605 1.267-2.5 1.239-1.28 2.308-1.122 2.308-1.122z" fill="#F4E4D2"/><path d="M26.5 57.214c6.864-5.482 12.05-10.75 15.556-15.802 3.507-5.053 5.26-9.862 5.26-14.428 0-3.893-.71-7.2-2.13-9.92-1.422-2.72-3.177-4.93-5.266-6.63-2.09-1.699-4.346-2.932-6.77-3.698-2.423-.766-4.639-1.149-6.647-1.149s-4.225.383-6.65 1.15c-2.425.765-4.682 1.998-6.772 3.698-2.089 1.7-3.844 3.91-5.265 6.63-1.42 2.719-2.131 6.026-2.131 9.92 0 4.565 1.753 9.374 5.26 14.427 3.507 5.053 8.692 10.32 15.556 15.802zm0 6.17c-8.66-6.5-15.106-12.758-19.337-18.774C2.932 38.593.816 32.72.816 26.99c0-4.33.775-8.126 2.325-11.391 1.55-3.265 3.554-6.005 6.011-8.22a25.016 25.016 0 018.279-4.992C20.492 1.275 23.515.719 26.499.719c2.985 0 6.008.556 9.07 1.668a25.013 25.013 0 018.28 4.991c2.457 2.216 4.46 4.957 6.01 8.223 1.55 3.266 2.326 7.067 2.326 11.402 0 5.739-2.116 11.612-6.347 17.62-4.23 6.008-10.677 12.262-19.337 18.761z" fill="#A31D1C"/></svg>