<svg width="27" height="27" fill="none" xmlns="http://www.w3.org/2000/svg"><mask id="a" style="mask-type:alpha" maskUnits="userSpaceOnUse" x="0" y="0" width="27" height="27"><path fill="#D9D9D9" d="M0 0h27v27H0z"/></mask><g mask="url(#a)"><path d="M6.715 24c-.47 0-.875-.166-1.21-.497A1.616 1.616 0 015 22.309V8.021h1.378v14.288c0 .083.035.16.105.229.07.07.148.104.232.104H17.8V24H6.715zm3.305-3.257c-.472 0-.875-.166-1.211-.497a1.616 1.616 0 01-.505-1.194V5.691c0-.465.168-.863.505-1.194.336-.331.74-.497 1.21-.497h10.266c.47 0 .875.166 1.21.497.337.331.505.73.505 1.194v13.361c0 .465-.168.863-.504 1.194-.336.331-.74.497-1.211.497H10.02zm0-1.358h10.265a.325.325 0 00.232-.104.316.316 0 00.105-.229V5.691a.316.316 0 00-.105-.229.325.325 0 00-.232-.104H10.02a.325.325 0 00-.232.104.316.316 0 00-.106.229v13.361c0 .083.035.16.106.229.07.069.147.104.232.104z" fill="#64AD01"/></g></svg>