<svg width="18" height="16" fill="none" xmlns="http://www.w3.org/2000/svg"><path d="M8.989 15.894a6.904 6.904 0 01-2.752-.553 7.133 7.133 0 01-2.248-1.51 7.137 7.137 0 01-1.516-2.244 6.878 6.878 0 01-.557-2.761c0-.981.186-1.9.557-2.758A7.232 7.232 0 013.99 3.819a7.074 7.074 0 012.248-1.516A6.904 6.904 0 018.99 1.75a6.89 6.89 0 012.75.553c.86.37 1.61.875 2.251 1.516a7.134 7.134 0 011.516 2.25c.37.857.554 1.777.554 2.758a6.92 6.92 0 01-.554 2.76 7.045 7.045 0 01-3.767 3.754 6.896 6.896 0 01-2.75.553zm2.567-3.767l.737-.737-2.748-2.746V4.667H8.498v4.397l3.058 3.063zM3.692.398l.738.732-3.16 3.103-.737-.737L3.693.398zm10.591 0l3.165 3.098-.738.737-3.159-3.103.732-.732zM8.99 14.848c1.673 0 3.096-.587 4.267-1.758 1.171-1.171 1.757-2.593 1.757-4.266 0-1.674-.586-3.097-1.757-4.269-1.172-1.172-2.594-1.758-4.266-1.758-1.674 0-3.097.586-4.27 1.758C3.55 5.727 2.964 7.15 2.964 8.823c0 1.673.586 3.096 1.758 4.267 1.172 1.171 2.594 1.757 4.268 1.757z" fill="#A31D1C"/></svg>