<svg width="35" height="35" fill="none" xmlns="http://www.w3.org/2000/svg"><path d="M12.542 13.125h-1.75a.875.875 0 110-1.75h4.083v-1.75h-2.333V8.166h-1.75v1.459a2.625 2.625 0 000 5.25h1.75a.875.875 0 110 1.75H8.459v1.75h2.333v1.458h1.75v-1.458a2.627 2.627 0 002.625-2.625 2.628 2.628 0 00-2.625-2.625z" fill="#A31D1C"/><path d="M31.5 10.5V8.167h-9.334V5.833A2.34 2.34 0 0019.834 3.5h-14A2.341 2.341 0 003.5 5.834v23.333A2.34 2.34 0 005.833 31.5h14a2.34 2.34 0 002.334-2.333v-2.333h4.666v1.75l4.667-2.917-4.666-2.917v1.75h-21V5.834h14v2.333a2.34 2.34 0 00-2.334 2.334v8.166A2.34 2.34 0 0019.834 21H31.5v-2.333H19.834V14H31.5v-1.75H19.834V10.5H31.5zM12.833 26.834a1.167 1.167 0 110 2.333 1.167 1.167 0 010-2.333z" fill="#A31D1C"/><path d="M21 15.75h5.833v1.75H21v-1.75z" fill="#A31D1C"/></svg>