<svg width="35" height="35" fill="none" xmlns="http://www.w3.org/2000/svg"><path d="M3.5 29.167A2.335 2.335 0 015.833 31.5H3.5v-2.333zM9.917 31.5A6.417 6.417 0 003.5 25.084v2.333A4.084 4.084 0 017.583 31.5h2.334z" fill="#A31D1C"/><path d="M14 31.5C14 25.702 9.298 21 3.5 21v2.334a8.168 8.168 0 018.166 8.166H14zm16.334-28H14a1.17 1.17 0 00-1.167 1.167v11.666c0 .642.128 1.676.284 2.3l2.934 11.735c.155.623.807 1.132 1.449 1.132h9.334c.64 0 1.293-.51 1.449-1.131l2.935-11.736a11.49 11.49 0 00.282-2.3V4.667A1.17 1.17 0 0030.334 3.5zM19.54 28h-1.75v-1.75h1.75V28zm0-3.5h-1.75v-1.75h1.75v1.75zm0-3.5h-1.75v-1.75h1.75V21zm3.5 7h-1.75v-1.75h1.75V28zm0-3.5h-1.75v-1.75h1.75v1.75zm0-3.5h-1.75v-1.75h1.75V21zm3.5 7h-1.75v-1.75h1.75V28zm0-3.5h-1.75v-1.75h1.75v1.75zm0-3.5h-1.75v-1.75h1.75V21zm2.043-7c0 .963-.788 1.75-1.75 1.75H17.5c-.962 0-1.75-.787-1.75-1.75V8.75c0-.963.788-1.75 1.75-1.75h9.334c.962 0 1.75.787 1.75 1.75V14z" fill="#A31D1C"/></svg>