<svg width="29" height="29" fill="none" xmlns="http://www.w3.org/2000/svg"><path d="M.5 3.487l3.5 3.5 5.25-5.25L8.013.5 4 4.513 1.737 2.25.5 3.487zM26.166.5h-9.332A2.34 2.34 0 0014.5 2.833v23.334a2.34 2.34 0 002.334 2.333h9.332a2.34 2.34 0 002.334-2.334V2.834A2.34 2.34 0 0026.166.5zM18.584 25h-1.75v-1.75h1.75V25zm0-3.5h-1.75v-1.75h1.75v1.75zm0-3.5h-1.75v-1.75h1.75V18zm3.791 7h-1.75v-1.75h1.75V25zm0-3.5h-1.75v-1.75h1.75v1.75zm0-3.5h-1.75v-1.75h1.75V18zm3.791 7h-1.75v-1.75h1.75V25zm0-3.5h-1.75v-1.75h1.75v1.75zm0-3.5h-1.75v-1.75h1.75V18zm0-8.167A1.17 1.17 0 0125 11h-7a1.17 1.17 0 01-1.166-1.167v-3.5A1.17 1.17 0 0118 5.167h7a1.17 1.17 0 011.166 1.166v3.5zm-14-.583H2.833A2.34 2.34 0 00.5 11.583v1.167h11.666v-3.5zm0 5.833H.5v4.667a2.341 2.341 0 002.333 2.334h9.334v-7zM2.833 19.75V18h5.834v1.75H2.833z" fill="#A31D1C"/></svg>