<svg width="35" height="35" fill="none" xmlns="http://www.w3.org/2000/svg"><path d="M26.834 26.834V28a1.166 1.166 0 102.333 0v-3.5h-9.333V12.834H31.5V28a3.5 3.5 0 01-3.5 3.5h-9.333a3.5 3.5 0 01-3.5-3.5v-1.166h11.667z" fill="#A31D1C"/><path d="M3.5 3.5v28h10.53a5.778 5.778 0 01-1.197-3.5v-3.5H17.5v-8.367l-5.834-5.834-3.016 3.018L7 11.666 11.666 7l5.834 5.833V10.5h9.334v-7H3.5zm7 24.5H7v-2.334h3.5V28zm0-4.666H7V21h3.5v2.334zm3.5-7v2.333H7v-2.334h7zm9.334-8.167H17.5V5.833h5.834v2.334z" fill="#A31D1C"/></svg>