<svg width="30" height="30" fill="none" xmlns="http://www.w3.org/2000/svg"><path d="M15 0C6.715 0 0 6.715 0 15s6.715 15 15 15 15-6.715 15-15S23.285 0 15 0zm4.688 10.313c1.036 0 1.874.837 1.874 1.874a1.874 1.874 0 11-1.874-1.875zm-9.428 0a1.874 1.874 0 110 3.75 1.873 1.873 0 01-1.875-1.876c0-1.037.89-1.874 1.875-1.874zm11.467 9.972c-1.67 2.004-4.12 3.1-6.727 3.1a8.728 8.728 0 01-6.727-3.15c-.796-.955.642-2.15 1.44-1.201A6.742 6.742 0 0015 21.557c2.05 0 3.974-.904 5.285-2.474.785-.948 2.233.247 1.442 1.202z" fill="#A31D1C"/></svg>