<svg width="35" height="35" fill="none" xmlns="http://www.w3.org/2000/svg"><path d="M29.538 8.655a.89.89 0 00-1.257-.03l-.898.855A9.67 9.67 0 009.745 4.758a.889.889 0 001.467 1.002 7.897 7.897 0 0114.395 3.757l-.853-.755a.889.889 0 10-1.178 1.332l2.365 2.093a.89.89 0 001.202-.023l2.364-2.253a.889.889 0 00.03-1.256zm-3.568 5.673a.889.889 0 00-1.222.289 7.898 7.898 0 01-14.593-3.452l.853.755a.889.889 0 001.178-1.331L9.82 8.496a.89.89 0 00-1.24.06L6.489 10.81a.889.889 0 001.303 1.21l.596-.644A9.676 9.676 0 0026.26 15.55a.888.888 0 00-.29-1.223zM9.196 22.1H6a.509.509 0 00-.509.51v10.907a.509.509 0 00.509.509h3.196a1.108 1.108 0 001.108-1.109V23.21a1.108 1.108 0 00-1.108-1.108zm20.2 1.249a1.913 1.913 0 00-1.603-.863h-1.252a2.764 2.764 0 00-2.563 1.715 2.75 2.75 0 01-.754 1.034 4.058 4.058 0 01-3.087 1.582h-3.712a.738.738 0 010-1.477h3.692a2.449 2.449 0 001.499-.566 2.58 2.58 0 00-2.572-2.288H16.32a3.832 3.832 0 00-2.72 1.123l-.07.07a3.475 3.475 0 01-1.75.945v7.405h9.827a7.58 7.58 0 006.97-4.592l.978-2.276a1.914 1.914 0 00-.16-1.812z" fill="#A31D1C"/><path d="M18.723 11.412h-1.824v.788h2.997v.918H16.9v1.294h-1.467v-1.294h-1.02V12.2h1.02v-.788h-1.02V10.2h1.02V6.177h3.29c.809 0 1.493.258 2.054.776.561.502.842 1.125.842 1.87 0 .73-.28 1.346-.842 1.848-.56.494-1.245.74-2.053.74zm0-3.965h-1.824V10.2h1.824c.408 0 .744-.133 1.007-.4.281-.267.421-.592.421-.976 0-.385-.14-.71-.42-.977-.264-.267-.6-.4-1.008-.4z" fill="#A31D1C"/></svg>