<svg width="25" height="24" fill="none" xmlns="http://www.w3.org/2000/svg"><path d="M17.518 11.78a6.715 6.715 0 001.732-4.499A6.758 6.758 0 0012.5.531a6.758 6.758 0 00-6.75 6.75 6.758 6.758 0 006.75 6.75 6.702 6.702 0 003.572-1.033 10.107 10.107 0 016.518 8.627H2.41a10.13 10.13 0 013.441-6.793.843.843 0 10-1.108-1.272 11.813 11.813 0 00-4.056 8.909c0 .466.378.843.844.843H23.47a.843.843 0 00.843-.843 11.79 11.79 0 00-6.794-10.689zM7.438 7.281A5.068 5.068 0 0112.5 2.22a5.068 5.068 0 015.063 5.062 5.068 5.068 0 01-5.063 5.063A5.068 5.068 0 017.437 7.28z" fill="#2C2C2C"/></svg>