<svg width="26" height="26" fill="none" xmlns="http://www.w3.org/2000/svg"><path d="M13 19.308a.935.935 0 00.965-.964.935.935 0 00-.964-.965.937.937 0 00-.965.964.937.937 0 00.964.965zm-.787-4.76h1.675v-8.21h-1.675v8.212zm.796 11.119c-1.754 0-3.398-.333-4.934-.998a12.865 12.865 0 01-4.024-2.718 12.853 12.853 0 01-2.72-4.024c-.664-1.536-.997-3.18-.997-4.936 0-1.749.332-3.393.997-4.932a12.712 12.712 0 012.718-4.02 12.949 12.949 0 014.025-2.708c1.535-.665 3.18-.998 4.935-.998 1.75 0 3.394.333 4.933.998a12.807 12.807 0 014.02 2.707 12.79 12.79 0 012.707 4.02c.666 1.542.998 3.186.998 4.934 0 1.754-.332 3.398-.997 4.933a12.911 12.911 0 01-2.707 4.02 12.788 12.788 0 01-4.021 2.72c-1.54.668-3.185 1.002-4.933 1.002zm.003-1.675c3.054 0 5.648-1.07 7.78-3.206 2.134-2.138 3.2-4.737 3.2-7.797 0-3.055-1.065-5.648-3.195-7.781s-4.729-3.2-7.796-3.2c-3.053 0-5.649 1.066-7.786 3.196C3.078 7.334 2.01 9.932 2.01 13c0 3.053 1.069 5.648 3.206 7.786 2.137 2.137 4.736 3.206 7.797 3.206z" fill="#393939"/></svg>