<svg width="27" height="27" fill="none" xmlns="http://www.w3.org/2000/svg"><path d="M24.47 10.969c-.001 0-.001 0 0 0l-.001-5.063V3.375A2.532 2.532 0 0021.937.844H4.642A4.646 4.646 0 000 5.484V22.36A4.646 4.646 0 004.64 27h15.188a4.647 4.647 0 004.64-4.64v-1.266c3.374-2.532 3.375-7.593.002-10.125zM4.64 2.53h17.297c.465 0 .844.378.844.844v5.218a2.502 2.502 0 00-.843-.155l-.001-.844V4.219a.844.844 0 00-.844-.844H3.374a.844.844 0 00-.844.844v3.327a2.938 2.938 0 01-.842-2.062A2.953 2.953 0 014.64 2.531zm16.453 2.531H3.374V4.22h17.719v.843zm0 .844v.844H3.374v-.844h17.719zm0 1.688v.843H4.64a2.92 2.92 0 01-1.266-.295v-.548h17.718zm1.688 14.765a2.953 2.953 0 01-2.953 2.953H4.641a2.953 2.953 0 01-2.954-2.953V9.061a4.618 4.618 0 002.954 1.064h17.296c.465 0 .844.378.844.844v1.687h-7.593a4.218 4.218 0 100 8.438h7.593v1.265zm1.078-2.953h-8.672a2.534 2.534 0 01-2.53-2.531 2.534 2.534 0 012.53-2.531h7.594a1.74 1.74 0 001.352-.679 1.7 1.7 0 00.21-.389c.009-.018.022-.033.029-.052a4.61 4.61 0 01.94 2.807 4.597 4.597 0 01-1.453 3.375z" fill="#393939"/></svg>