<svg width="21" height="27" fill="none" xmlns="http://www.w3.org/2000/svg"><path fill-rule="evenodd" clip-rule="evenodd" d="M10.502 14.973a5.068 5.068 0 005.063-5.062 5.068 5.068 0 00-5.063-5.063 5.068 5.068 0 00-5.063 5.063 5.068 5.068 0 005.063 5.062zm0-9.281a4.222 4.222 0 014.219 4.219 4.222 4.222 0 01-4.219 4.218 4.222 4.222 0 01-4.219-4.218 4.222 4.222 0 014.219-4.22z" fill="#393939"/><path fill-rule="evenodd" clip-rule="evenodd" d="M10.5 0A10.1 10.1 0 00.375 10.126c0 5.906 5.063 11.948 8.755 16.195.013.017.606.679 1.338.679h.065c.731 0 1.325-.662 1.338-.68 3.693-4.246 8.756-10.287 8.756-16.194A10.1 10.1 0 0010.5 0zm.099 25.214c-.018.017-.07.054-.114.083-.009-.023-.071-.073-.109-.113-3.092-3.558-8.313-9.563-8.313-15.058 0-4.653 3.785-8.438 8.437-8.438 4.654 0 8.44 3.785 8.44 8.439 0 5.494-5.222 11.5-8.341 15.087z" fill="#393939"/></svg>