<svg width="27" height="23" fill="none" xmlns="http://www.w3.org/2000/svg"><path d="M20.952 7.657a.845.845 0 00-.702-.376h-.844a.843.843 0 00-.843.844v5.063c0 .466.377.843.843.843h3.375a.843.843 0 00.844-.844v-1.265a.85.85 0 00-.142-.468l-2.531-3.797zm1.83 5.53h-3.376V8.125h.844l2.531 3.797v1.265z" fill="#393939"/><path d="M26.575 10.94L23.2 5.877a2.527 2.527 0 00-2.106-1.127h-3.375V3.062a2.534 2.534 0 00-2.532-2.53H2.531A2.534 2.534 0 000 3.061v9.282a2.534 2.534 0 002.531 2.531v2.531a2.534 2.534 0 002.531 2.532h.964a3.371 3.371 0 003.256 2.53 3.37 3.37 0 003.254-2.53h4.457a3.372 3.372 0 003.256 2.53 3.371 3.371 0 003.255-2.53h.965A2.534 2.534 0 0027 17.405v-5.062a2.52 2.52 0 00-.425-1.404zM2.53 13.188a.844.844 0 01-.844-.844V3.063c0-.467.379-.844.844-.844h12.656c.467 0 .844.377.844.844v9.28a.843.843 0 01-.843.844H2.53zm6.751 7.593a1.688 1.688 0 110-3.375 1.688 1.688 0 010 3.375zm10.968 0a1.688 1.688 0 110-3.375 1.688 1.688 0 010 3.375zm5.063-3.375a.843.843 0 01-.844.844h-.965a3.37 3.37 0 00-3.254-2.531 3.371 3.371 0 00-3.256 2.531h-4.457a3.37 3.37 0 00-3.254-2.531 3.371 3.371 0 00-3.256 2.531h-.965a.844.844 0 01-.843-.844v-2.531h10.968a2.534 2.534 0 002.532-2.531V6.438h3.375c.282 0 .545.14.702.375l3.375 5.063a.848.848 0 01.142.468v5.062z" fill="#393939"/></svg>