<svg width="52" height="45" fill="none" xmlns="http://www.w3.org/2000/svg"><circle cx="16" cy="20" r="16" fill="#FEDF4A"/><path d="M40.986 18.34l-.01-.06a10.985 10.985 0 00-3.32-5.868 10.787 10.787 0 00-3.848-2.277 7.27 7.27 0 005.925-8.077A7.273 7.273 0 0032 6.733c-.39-1.484-1.24-3.274-3.106-4.486a.83.83 0 10-.904 1.392c2.786 1.81 2.669 5.474 2.662 5.629-.004.1.01.199.042.293a10.762 10.762 0 00-7.251 2.488 10.975 10.975 0 00-3.991 7.473l-.076.781c-.404 4.228-.696 7.281-5.061 10.233-.887.598-1.367 1.587-1.312 2.712a3.664 3.664 0 001.878 3.034 17.644 17.644 0 006.806 2.08c.574.055 1.142.082 1.706.082 9.034 0 16.783-6.892 17.662-16.065a17.857 17.857 0 00-.07-4.04zm-3.1 3.732a14.574 14.574 0 01-14.484 13.183.83.83 0 010-1.66 12.905 12.905 0 0012.832-11.681.83.83 0 011.652.158z" fill="#A31D1C"/></svg>