<svg width="52" height="48" fill="none" xmlns="http://www.w3.org/2000/svg"><circle cx="16" cy="16" r="16" fill="#FEDF4A"/><path d="M48.203 17.203c-.562-.14-1.125 0-1.547.422l-4.5 5.625c-2.39-2.813-8.297-9-15.468-9h-.704c1.97 3.375 2.953 7.172 2.953 11.25 0 3.938-.984 7.875-2.953 11.25h.703c7.172 0 13.079-6.047 15.47-9l4.5 5.625c.28.281.702.563 1.124.563.14 0 .282 0 .422-.141.563-.14.984-.703.984-1.266V18.47c0-.563-.421-1.125-.984-1.266z" fill="#A31D1C"/><path d="M23.031 14.813c-7.312 2.109-12.656 9.562-12.937 9.843-.281.422-.281 1.125 0 1.688.281.422 5.625 7.875 12.937 9.843 2.11-3.234 3.094-6.89 3.094-10.687 0-3.797-1.125-7.594-3.094-10.688zM21.063 25.5c0 .844-.563 1.406-1.407 1.406-.843 0-1.406-.562-1.406-1.406v-2.813c0-.843.563-1.406 1.406-1.406.844 0 1.407.563 1.407 1.407V25.5z" fill="#A31D1C"/></svg>