<svg width="47" height="48" fill="none" xmlns="http://www.w3.org/2000/svg"><circle cx="16" cy="16" r="16" fill="#FEDF4A"/><path d="M27.313 10.031c-.282 0-.563.14-.844.281L7.203 24.095h18.985c.562-2.39 2.812-4.219 5.484-4.219 3.094 0 5.625 2.531 5.625 5.625s-2.531 5.625-5.625 5.625c-2.672 0-4.781-1.828-5.485-4.219H6.22v12.657c0 .843.562 1.406 1.406 1.406h17.016c.422 0 .843-.14 1.125-.563.28-.281.422-.703.28-1.125v-.422c0-1.125.985-2.109 2.11-2.109s2.11.984 2.11 2.11v.421c-.141.422 0 .844.28 1.125.282.282.704.563 1.126.563h9.703c.844 0 1.406-.563 1.406-1.407V25.5c0-8.578-6.89-15.469-15.468-15.469zM16.063 36.75c-2.391 0-4.22-1.828-4.22-4.219 0-2.39 1.829-4.218 4.22-4.218 2.39 0 4.218 1.828 4.218 4.218 0 2.39-1.828 4.219-4.218 4.219z" fill="#A31D1C"/></svg>