<svg width="51" height="48" fill="none" xmlns="http://www.w3.org/2000/svg"><circle cx="16" cy="16" r="16" fill="#FEDF4A"/><path d="M18.548 5.742a7.18 7.18 0 107.179 7.183 7.189 7.189 0 00-7.18-7.183zM14.3 13.276c-.739 0-1.312-.422-1.312-.956s.573-.953 1.312-.953c.738 0 1.311.418 1.311.953 0 .534-.576.956-1.311.956zm.21-3.653c0-.9.964-1.606 2.195-1.606 1.23 0 2.193.706 2.193 1.606 0 .9-.963 1.604-2.194 1.604-1.23 0-2.193-.704-2.193-1.604zm3.713 3.45c-.643 0-1.146-.377-1.146-.855s.503-.85 1.146-.85c.644 0 1.143.372 1.143.85s-.503.854-1.143.854z" fill="#A31D1C"/><path d="M32.206 7.593a7.181 7.181 0 107.179 7.182 7.189 7.189 0 00-7.18-7.182zm-4.247 7.534c-.738 0-1.311-.422-1.311-.957 0-.534.573-.952 1.311-.952s1.311.418 1.311.953c0 .534-.576.956-1.311.956zm.21-3.653c0-.9.964-1.607 2.195-1.607 1.23 0 2.193.707 2.193 1.607s-.963 1.603-2.193 1.603-2.194-.703-2.194-1.604v.001zm3.713 3.449c-.643 0-1.146-.376-1.146-.854 0-.479.503-.851 1.146-.851.644 0 1.143.372 1.143.85 0 .479-.503.855-1.143.855z" fill="#A31D1C"/><path d="M23.534 18.421a7.18 7.18 0 107.179 7.183 7.188 7.188 0 00-7.179-7.183zm-4.247 7.534c-.738 0-1.311-.421-1.311-.956 0-.534.573-.953 1.311-.953s1.311.419 1.311.953c0 .535-.576.956-1.31.956zm.211-3.652c0-.9.963-1.607 2.194-1.607 1.23 0 2.194.707 2.194 1.607s-.964 1.603-2.194 1.603-2.194-.703-2.194-1.605v.002zm3.713 3.448c-.644 0-1.146-.376-1.146-.854s.502-.85 1.146-.85c.643 0 1.142.372 1.142.85s-.503.855-1.142.855zm15.823-1.741a7.18 7.18 0 107.179 7.182 7.189 7.189 0 00-7.179-7.182zm-4.247 7.534c-.738 0-1.311-.422-1.311-.957 0-.534.573-.952 1.311-.952s1.311.418 1.311.952c0 .535-.576.957-1.31.957zm.211-3.653c0-.9.963-1.607 2.194-1.607 1.23 0 2.194.707 2.194 1.607s-.964 1.603-2.194 1.603-2.194-.703-2.194-1.603zm3.713 3.449c-.644 0-1.146-.376-1.146-.855 0-.478.502-.85 1.146-.85.643 0 1.142.372 1.142.85 0 .479-.503.855-1.142.855zm-22.199 1.198a7.182 7.182 0 107.18 7.182 7.188 7.188 0 00-7.18-7.182zm-4.246 7.534c-.739 0-1.312-.422-1.312-.957 0-.534.573-.952 1.312-.952.738 0 1.311.418 1.311.952 0 .535-.577.957-1.311.957zm.21-3.653c0-.9.964-1.607 2.194-1.607s2.194.707 2.194 1.607-.963 1.603-2.194 1.603c-1.23 0-2.193-.703-2.193-1.603zm3.713 3.449c-.643 0-1.146-.377-1.146-.855s.503-.85 1.146-.85c.643 0 1.143.372 1.143.85 0 .479-.503.855-1.143.855z" fill="#A31D1C"/></svg>