<svg width="35" height="35" fill="none" xmlns="http://www.w3.org/2000/svg"><path d="M18.229 29.167H5.104a2.187 2.187 0 01-2.188-2.188V12.396h1.458v14.583a.73.73 0 00.73.73h13.125v1.458zm13.854-9.48h-1.459V7.293a.73.73 0 00-.729-.73H18.23V5.105h11.666a2.188 2.188 0 012.188 2.188v12.396z" fill="#A31D1C"/><path d="M3.646 22.604H18.96v1.459H3.646v-1.459zm8.021 10.938h11.667V35H11.667v-1.458z" fill="#A31D1C"/><path d="M18.958 30.625h1.458v3.646h-1.458v-3.646zm-4.375-2.188h1.458v5.834h-1.458v-5.834zM.729 3.646h18.958v1.458H.729V3.646zM2.916 8.75h3.646v1.458H2.916V8.75z" fill="#A31D1C"/><path d="M26.25 35A8.75 8.75 0 1135 26.25 8.76 8.76 0 0126.25 35zm0-16.042a7.292 7.292 0 107.292 7.292 7.3 7.3 0 00-7.292-7.292z" fill="#A31D1C"/><path d="M28.438 29.896h-5.104v-1.458h4.375v-1.459h-3.646a.73.73 0 01-.729-.729v-2.917a.729.729 0 01.73-.729h5.103v1.459h-4.375v1.458h3.646a.73.73 0 01.73.73v2.916a.73.73 0 01-.73.729z" fill="#A31D1C"/><path d="M25.52 21.146h1.46v2.187h-1.46v-2.187zm0 8.02h1.46v2.188h-1.46v-2.187zM9.48 14.584h12.395v1.459H9.479v-1.459zm13.853 0h2.188v1.459h-2.188v-1.459zM17.5 13.125H2.187A2.188 2.188 0 010 10.937v-8.75A2.188 2.188 0 012.188 0H17.5a2.187 2.187 0 012.188 2.188v8.75a2.188 2.188 0 01-2.188 2.187zM2.187 1.458a.73.73 0 00-.729.73v8.75a.73.73 0 00.73.729H17.5a.73.73 0 00.73-.73v-8.75a.73.73 0 00-.73-.729H2.187z" fill="#A31D1C"/></svg>