<svg width="34" height="39" fill="none" xmlns="http://www.w3.org/2000/svg"><g clip-path="url(#clip0_419_5478)" fill="#A31D1C"><path d="M31.571 22.75h-16.19v-1.625h16.19a.808.808 0 00.81-.813V2.438a.814.814 0 00-.81-.812H2.43a.808.808 0 00-.81.813v17.875a.814.814 0 00.81.812h4.047v1.625H2.43a2.424 2.424 0 01-1.718-.714A2.442 2.442 0 010 20.312V2.438C0 1.792.256 1.171.711.714A2.424 2.424 0 012.43 0h29.14c.644 0 1.262.257 1.718.714.455.457.711 1.077.711 1.724v17.875c0 .646-.256 1.266-.711 1.723a2.424 2.424 0 01-1.718.714zM25.095 39H8.905a.808.808 0 01-.81-.813v-4.874a.814.814 0 01.81-.813h16.19a.808.808 0 01.81.813v4.874a.814.814 0 01-.81.813zm-15.38-1.625h14.57v-3.25H9.716v3.25z"/><path d="M16.19 28.438h-1.62V25.52l-3.003-3.007a.813.813 0 01-.234-.576V16.25c0-.646-.256-1.267-.712-1.724a2.424 2.424 0 00-1.717-.713h-.81a.808.808 0 00-.809.812v7.313H5.666v-7.313c0-.646.256-1.267.711-1.724a2.424 2.424 0 011.718-.713h.81a4.04 4.04 0 012.861 1.19 4.07 4.07 0 011.186 2.872v5.354l3.003 3.007a.813.813 0 01.235.576v3.25z"/><path d="M24.286 34.125H9.715a.808.808 0 01-.81-.813v-2.916l-3.003-3.007a.813.813 0 01-.235-.576v-4.875h1.619v4.541l3.003 3.007a.812.812 0 01.235.576V32.5h12.953v-2.438a.815.815 0 01.234-.576l3.004-3.007v-2.916h1.619v3.25a.815.815 0 01-.235.576l-3.003 3.007v2.916a.814.814 0 01-.81.813zM10.524 10.562H7.286a2.424 2.424 0 01-1.717-.713 2.442 2.442 0 01-.712-1.724V6.5c0-.646.256-1.266.712-1.724a2.424 2.424 0 011.717-.713h3.238c.644 0 1.262.256 1.717.713.456.458.712 1.078.712 1.724v1.625c0 .646-.256 1.266-.712 1.724a2.424 2.424 0 01-1.717.713zM7.286 5.689a.808.808 0 00-.81.812v1.625a.814.814 0 00.81.813h3.238a.808.808 0 00.81-.813V6.5a.814.814 0 00-.81-.813H7.286zm6.476 11.375h7.286v1.625h-7.286v-1.625zm0-4.063h2.429v1.625h-2.429V13zm4.048 0h4.857v1.625H17.81V13zm6.476 0h4.857v1.625h-4.857V13z"/></g><defs><clipPath id="clip0_419_5478"><path fill="#fff" d="M0 0h34v39H0z"/></clipPath></defs></svg>