<svg width="132" height="130" fill="none" xmlns="http://www.w3.org/2000/svg"><g filter="url(#filter0_d_464_1756)"><path d="M42.426 9.54l-.378-.924.378.924C49.698 6.562 57.551 5 65.637 5c8.085 0 15.939 1.562 23.21 4.54a60.624 60.624 0 0119.671 13.02c5.715 5.652 10.152 12.249 13.166 19.443a59.24 59.24 0 014.589 22.936c0 7.99-1.579 15.75-4.589 22.936-3.014 7.194-7.451 13.791-13.166 19.442a60.628 60.628 0 01-19.67 13.021c-7.272 2.977-15.126 4.539-23.21 4.539-8.087 0-15.94-1.562-23.212-4.539a60.601 60.601 0 01-19.67-13.021c-5.715-5.651-10.152-12.248-13.166-19.442l-.923.387.923-.387A59.224 59.224 0 015 64.94a59.23 59.23 0 014.59-22.936c3.014-7.195 7.45-13.791 13.167-19.443a60.606 60.606 0 0119.67-13.02z" stroke="#fff" stroke-width="2" shape-rendering="crispEdges"/></g><g filter="url(#filter1_d_464_1756)"><path d="M54.742 81.64c-.252 0-.5-.064-.717-.186a1.382 1.382 0 01-.717-1.204V48.724c0-.497.273-.955.717-1.204a1.469 1.469 0 011.434 0l28.178 15.763c.444.249.717.707.717 1.204 0 .496-.273.955-.717 1.203L55.459 81.454a1.47 1.47 0 01-.717.186z" fill="#fff"/></g><defs><filter id="filter0_d_464_1756" x="0" y="0" width="131.273" height="129.877" filterUnits="userSpaceOnUse" color-interpolation-filters="sRGB"><feFlood flood-opacity="0" result="BackgroundImageFix"/><feColorMatrix in="SourceAlpha" values="0 0 0 0 0 0 0 0 0 0 0 0 0 0 0 0 0 0 127 0" result="hardAlpha"/><feOffset/><feGaussianBlur stdDeviation="2"/><feComposite in2="hardAlpha" operator="out"/><feColorMatrix values="0 0 0 0 1 0 0 0 0 1 0 0 0 0 1 0 0 0 1 0"/><feBlend in2="BackgroundImageFix" result="effect1_dropShadow_464_1756"/><feBlend in="SourceGraphic" in2="effect1_dropShadow_464_1756" result="shape"/></filter><filter id="filter1_d_464_1756" x="49.308" y="43.334" width="39.047" height="42.306" filterUnits="userSpaceOnUse" color-interpolation-filters="sRGB"><feFlood flood-opacity="0" result="BackgroundImageFix"/><feColorMatrix in="SourceAlpha" values="0 0 0 0 0 0 0 0 0 0 0 0 0 0 0 0 0 0 127 0" result="hardAlpha"/><feOffset/><feGaussianBlur stdDeviation="2"/><feComposite in2="hardAlpha" operator="out"/><feColorMatrix values="0 0 0 0 1 0 0 0 0 1 0 0 0 0 1 0 0 0 1 0"/><feBlend in2="BackgroundImageFix" result="effect1_dropShadow_464_1756"/><feBlend in="SourceGraphic" in2="effect1_dropShadow_464_1756" result="shape"/></filter></defs></svg>