<svg width="36" height="36" fill="none" xmlns="http://www.w3.org/2000/svg"><path d="M30.656 16.523A1.478 1.478 0 0129.18 18h-8.024l-2.74-1.763a1.009 1.009 0 00-1.091 1.696l.104.067H6.82a1.477 1.477 0 010-2.953h22.36a1.475 1.475 0 011.476 1.476z" fill="#A31D1C"/><path d="M28.252 24.967l-.453 3.4a2.64 2.64 0 01-2.619 2.29H10.82a2.64 2.64 0 01-2.619-2.29L6.821 18h10.608l5.814 3.743 1.853 1.193 3.156 2.03zM29.18 18l-.633 4.759L21.156 18h8.024z" fill="#000"/><path d="M30.577 25.265a1.007 1.007 0 01-1.392.303l-.933-.602-3.156-2.03-1.854-1.193L17.43 18l-.104-.068a1.009 1.009 0 011.091-1.695L21.156 18l7.39 4.759 1.73 1.113a1.009 1.009 0 01.301 1.393z" fill="#A31D1C"/><path d="M16.422 15.047H9.464l-1.13-5.572 6.685-1.355.818 4.038.585 2.889z" fill="#558B2F"/><path d="M22.213 9.68l-.292.892-1.471 4.475h-4.028l-.585-2.889 1.356-4.125a2.64 2.64 0 115.02 1.648z" fill="#FEDF4A"/><path d="M27.703 13.095v1.538c0 .14-.013.277-.036.414H20.45l1.47-4.475h3.26a2.524 2.524 0 012.523 2.523z" fill="#E66C2D"/><path d="M20.343 11.064a.487.487 0 01-.17-.03l-2.344-.87a.494.494 0 01-.035-.908.493.493 0 01.377-.014l2.344.869a.492.492 0 01-.172.953zm-.82 2.53a.485.485 0 01-.155-.026l-2.32-.773a.492.492 0 11.31-.934l2.321.774a.492.492 0 01-.156.959z" fill="#FFF8E3"/><path d="M19.006 21.724a1.005 1.005 0 00-2.011 0v5.395a1.006 1.006 0 002.01 0v-5.395zm-6.322 6.366a1 1 0 01-1.134-.806l-.813-5.462a.96.96 0 01.857-1.068 1 1 0 011.135.806l.811 5.462a.962.962 0 01-.856 1.067zm12.412-5.154l-.644 4.348a.999.999 0 01-1.136.804.957.957 0 01-.855-1.066l.782-5.279 1.853 1.193z" fill="#F0F0F4"/></svg>