<svg width="29" height="30" fill="none" xmlns="http://www.w3.org/2000/svg"><path d="M12.28 10.419c-.562-.225-1.122-.623-1.64-1.151A8.451 8.451 0 019.276 7.38l-.001.001-.003-.008c-.696-1.292-1.066-2.68-1.1-3.878-.04-1.328.325-2.454 1.103-3.063.779-.61 1.78-.554 2.77.03.893.525 1.794 1.497 2.491 2.791a9.44 9.44 0 011.02 2.996c.041.27.115.541.078.798l-.284 1.991-.794-.634c.193-.497-.071-1.15-.185-1.893a7.757 7.757 0 00-.845-2.467c-.574-1.065-1.3-1.857-2.01-2.274-.586-.346-1.139-.423-1.532-.16l-.131.16h-.05c-.308.343-.45.946-.428 1.673.028.948.331 2.067.903 3.132l.002-.002.002.01c.33.61.72 1.147 1.139 1.575.405.414.829.72 1.237.883l-.377 1.377zm2.255-7.165z" fill="#EE842C"/><path d="M18.76 8.97a4.948 4.948 0 002.12-1.837c.237-.382.386-.756.451-1.104a1.762 1.762 0 00-.016-.796 1.181 1.181 0 00-.347-.564 1.54 1.54 0 00-.637-.332c-.67-.183-1.477-.04-2.243.336a4.909 4.909 0 00-1.974 1.77c-.329.528-.492 1.05-.49 1.5.003.378.134.713.393.953l-.731 1.154c-.572-.527-.86-1.266-.865-2.1-.004-.76.239-1.589.73-2.378a6.193 6.193 0 012.484-2.242c.983-.484 2.048-.659 2.96-.41.431.118.798.32 1.095.589.37.334.628.766.767 1.263.136.483.154 1.019.05 1.576a4.845 4.845 0 01-.665 1.656 6.091 6.091 0 01-1.17 1.364c-.45.392-.957.721-1.492.962l-.42-1.36z" fill="#EE842C"/><path fill-rule="evenodd" clip-rule="evenodd" d="M13.896 29.368V8.922H.863a.796.796 0 00-.607.305l-.002.001v.002C.096 9.42 0 9.679 0 9.962v18.365c0 .287.097.548.253.736a.796.796 0 00.61.305h13.033zM29 28.328V9.961c0-.286-.097-.547-.253-.735a.795.795 0 00-.61-.305H15.104v20.446h13.033c.235 0 .45-.117.607-.305l.002-.002v-.001c.157-.19.254-.45.254-.733z" fill="#EE842C"/></svg>