<svg width="99" height="100" fill="none" xmlns="http://www.w3.org/2000/svg"><path d="M42.77 22.917h37.533s0 10.416-6.127 16.666c-6.128 6.25-12.254 8.334-14.297 8.334-2.042 0-21.446 2.083-26.552 6.25-5.106 4.166-8.168 11.458 0 18.75 8.168 7.291 22.467 10.416 32.68 6.25C76.219 75 82.347 62.5 82.347 62.5l8.17 20.833s-16.34 6.25-30.638 8.334c-14.298 2.083-28.594 0-40.85-12.5S4.73 51.042 14.943 37.5c8.51-11.283 21.272-13.888 25.292-14.443.843-.116 1.685-.14 2.535-.14z" stroke="#000" stroke-width="2" stroke-linecap="round" stroke-linejoin="round"/><path d="M53.751 47.917l-12.255-25" stroke="#000" stroke-width="2"/><path d="M37.412 8.333h28.595c7.896 0 14.297 6.53 14.297 14.584" stroke="#000" stroke-width="2" stroke-linecap="round" stroke-linejoin="round"/><path d="M61.92 37.5c2.257 0 4.086-1.865 4.086-4.167 0-2.3-1.829-4.166-4.085-4.166-2.256 0-4.085 1.865-4.085 4.166 0 2.302 1.829 4.167 4.085 4.167z" fill="#000"/></svg>