<svg width="105" height="100" fill="none" xmlns="http://www.w3.org/2000/svg"><path d="M70.296 59.388v-21.63c0-.724-.203-1.432-.586-2.045l-9.06-14.494H33.645l-9.059 14.494A3.858 3.858 0 0024 37.757v43.261a3.858 3.858 0 003.858 3.858h29.475" stroke="#000" stroke-width="2" stroke-linecap="round" stroke-linejoin="round"/><path d="M37.502 63.657V46.296l9.645 11.574 9.645-11.574v17.36M33.645 7.716H60.65V21.22H33.645V7.716zm24.46 62.037c0-2.346 19.561-12.842 24.7-15.56a2.133 2.133 0 012.322.218l14.027 11.021" stroke="#000" stroke-width="2" stroke-linecap="round" stroke-linejoin="round"/><path d="M99.154 67.217c0-1.436-1.37-2.483-2.76-2.122-6.92 1.795-25.175 6.098-35.223 4.398-1.506-.255-3.066.84-3.066 2.368v17.447c0 1.15.9 2.097 2.047 2.157L96.88 93.4a2.16 2.16 0 002.274-2.158V67.217z" stroke="#000" stroke-width="2" stroke-linecap="round" stroke-linejoin="round"/><path d="M91.591 77.315a2.16 2.16 0 110-4.321 2.16 2.16 0 010 4.32zm-14.042 2.16a2.16 2.16 0 110-4.32 2.16 2.16 0 010 4.32zm-9.723 5.401a2.16 2.16 0 110-4.32 2.16 2.16 0 010 4.32z" fill="#000"/><path d="M85.111 84.876a2.16 2.16 0 110-4.32 2.16 2.16 0 010 4.32z" fill="#000" stroke="#000" stroke-width="2"/></svg>