<svg width="100" height="100" fill="none" xmlns="http://www.w3.org/2000/svg"><path d="M80 47.353v.149c0 6.901-15.668 12.497-34.997 12.497-3.018 0-5.932-.148-8.724-.405 5.17 1.19 11.656 1.903 18.722 1.903 16.844 0 30.5-4.028 30.5-9.001 0-1.914-2.045-3.686-5.502-5.143z" stroke="#000" stroke-width="1.7" stroke-miterlimit="10" stroke-linecap="round" stroke-linejoin="round"/><path d="M55.002 65.003c-14.833 0-27.482-3.306-32.575-7.96a44.413 44.413 0 01-2.423-.802v16.257C20.004 79.401 35.67 85 55.002 85 74.332 85 90 79.401 90 72.498V52.496c0 6.906-15.668 12.507-35 12.507z" stroke="#000" stroke-width="1.5" stroke-miterlimit="10" stroke-linecap="round" stroke-linejoin="round"/><path d="M71.069 63.597C73.529 66.09 75 69.161 75 72.498c0 4.711-2.896 8.907-7.416 11.656-3.91.539-8.141.846-12.583.846a92.414 92.414 0 01-12.578-.846c-4.525-2.749-7.42-6.945-7.42-11.656 0-3.337 1.471-6.408 3.931-8.901 4.816.891 10.271 1.406 16.068 1.406 5.799 0 11.254-.516 16.067-1.406zm8.93-36.097c0 6.905-15.667 12.5-34.996 12.5C25.671 40 10 34.405 10 27.5v20.002c0 6.901 15.671 12.497 35.003 12.497 19.329 0 34.996-5.596 34.996-12.497V27.5z" stroke="#000" stroke-width="1.5" stroke-miterlimit="10" stroke-linecap="round" stroke-linejoin="round"/><path d="M28.93 38.6C26.472 41.088 25 44.164 25 47.502c0 4.708 2.897 8.902 7.421 11.654 3.908.537 8.142.843 12.583.843 4.441 0 8.67-.306 12.578-.843C62.104 56.404 65 52.21 65 47.502c0-3.338-1.471-6.414-3.931-8.902-4.814.89-10.268 1.4-16.066 1.4-5.799 0-11.256-.51-16.073-1.4z" stroke="#000" stroke-width="1.5" stroke-miterlimit="10" stroke-linecap="round" stroke-linejoin="round"/><path d="M33.754 49.501a13.332 13.332 0 016.588-3.458 6.633 6.633 0 010 6.911 13.316 13.316 0 01-6.588-3.453z" stroke="#000" stroke-width="1.5" stroke-miterlimit="10" stroke-linecap="round" stroke-linejoin="round"/><path d="M52.503 49.501c-3.304 3.188-7.91 4.33-12.161 3.453a6.634 6.634 0 000-6.911c4.25-.878 8.857.268 12.159 3.458h.002z" stroke="#000" stroke-width="1.5" stroke-miterlimit="10" stroke-linecap="round" stroke-linejoin="round"/><path d="M56.254 53.249a9.757 9.757 0 01-.002-7.497h.002l-3.75 3.749 3.746 3.748h.004z" stroke="#000" stroke-width="1.7" stroke-miterlimit="10" stroke-linecap="round" stroke-linejoin="round"/><path d="M75.501 27.5c0 4.972-13.654 9-30.497 9-16.848 0-30.502-4.027-30.502-9 0-4.971 13.654-9 30.502-9 16.843 0 30.497 4.029 30.497 9zM66.25 74.498c-1.875-1.811-4.176-2.956-6.588-3.455a6.624 6.624 0 000 6.911c2.412-.497 4.713-1.641 6.588-3.456z" stroke="#000" stroke-width="1.5" stroke-miterlimit="10" stroke-linecap="round" stroke-linejoin="round"/><path d="M47.502 74.498c3.302 3.191 7.909 4.337 12.162 3.456a6.623 6.623 0 010-6.911c-4.253-.877-8.86.265-12.162 3.455zm0 0l-3.749-3.75a9.78 9.78 0 01-.001 7.505h.003l3.747-3.755z" stroke="#000" stroke-width="1.7" stroke-miterlimit="10" stroke-linecap="round" stroke-linejoin="round"/><path d="M78.823 50.668c-1.157 1.576-3.15 3.034-5.813 4.305.246.007.487.024.74.024 4.145 0 7.502-1.119 7.502-2.501 0-.726-.943-1.371-2.43-1.828z" fill="#F4F4F4" stroke="#000" stroke-width="1.7" stroke-miterlimit="10" stroke-linecap="round" stroke-linejoin="round"/><path d="M79.999 27.5c0 6.905-15.667 12.5-34.996 12.5C25.671 40 10 34.405 10 27.5v20.002c0 6.901 15.671 12.497 35.003 12.497 19.329 0 34.996-5.596 34.996-12.497V27.5z" stroke="#000" stroke-width="1.7" stroke-miterlimit="10" stroke-linecap="round" stroke-linejoin="round"/><path d="M28.93 38.6C26.472 41.088 25 44.164 25 47.502c0 4.708 2.897 8.902 7.421 11.654 3.908.537 8.142.843 12.583.843 4.441 0 8.67-.306 12.578-.843C62.104 56.404 65 52.21 65 47.502c0-3.338-1.471-6.414-3.931-8.902-4.814.89-10.268 1.4-16.066 1.4-5.799 0-11.256-.51-16.073-1.4z" stroke="#000" stroke-width="1.7" stroke-miterlimit="10" stroke-linecap="round" stroke-linejoin="round"/><path d="M33.754 49.501a13.332 13.332 0 016.588-3.458 6.633 6.633 0 010 6.911 13.316 13.316 0 01-6.588-3.453z" stroke="#000" stroke-width="1.7" stroke-miterlimit="10" stroke-linecap="round" stroke-linejoin="round"/><path d="M52.503 49.501c-3.304 3.188-7.91 4.33-12.161 3.453a6.634 6.634 0 000-6.911c4.251-.878 8.857.268 12.159 3.458h.002zM79.999 27.5c0 6.905-15.667 12.5-34.996 12.5C25.671 40 10 34.405 10 27.5S25.671 15 45.003 15c19.329 0 34.996 5.595 34.996 12.5z" stroke="#000" stroke-width="1.7" stroke-miterlimit="10" stroke-linecap="round" stroke-linejoin="round"/><path d="M75.501 27.5c0 4.972-13.654 9-30.497 9-16.848 0-30.502-4.027-30.502-9 0-4.971 13.654-9 30.502-9 16.843 0 30.497 4.029 30.497 9z" stroke="#000" stroke-width="1.7" stroke-miterlimit="10" stroke-linecap="round" stroke-linejoin="round"/><path d="M26.251 30c4.141 0 7.499-1.12 7.499-2.5S30.392 25 26.251 25c-4.142 0-7.499 1.12-7.499 2.5s3.357 2.5 7.499 2.5zm28.751 35.003c-14.833 0-27.482-3.306-32.575-7.96a44.413 44.413 0 01-2.423-.802v16.257C20.004 79.401 35.67 85 55.002 85 74.332 85 90 79.401 90 72.498V52.496c0 6.906-15.668 12.507-35 12.507z" stroke="#000" stroke-width="1.7" stroke-miterlimit="10" stroke-linecap="round" stroke-linejoin="round"/><path d="M71.07 63.597c2.46 2.493 3.93 5.564 3.93 8.9 0 4.712-2.895 8.908-7.415 11.657-3.91.539-8.141.846-12.583.846a92.398 92.398 0 01-12.578-.846c-4.525-2.75-7.42-6.945-7.42-11.656 0-3.337 1.47-6.408 3.93-8.901 4.817.89 10.272 1.406 16.069 1.406 5.799 0 11.254-.516 16.067-1.406z" stroke="#000" stroke-width="1.7" stroke-miterlimit="10" stroke-linecap="round" stroke-linejoin="round"/><path d="M66.25 74.498c-1.875-1.811-4.176-2.956-6.588-3.455a6.624 6.624 0 000 6.911c2.412-.497 4.713-1.641 6.588-3.456z" stroke="#000" stroke-width="1.7" stroke-miterlimit="10" stroke-linecap="round" stroke-linejoin="round"/><path d="M47.5 74.498c3.303 3.19 7.91 4.337 12.163 3.456a6.624 6.624 0 010-6.911c-4.253-.877-8.86.265-12.162 3.455zM80 43.755v3.747c0 6.9-15.667 12.497-34.996 12.497-8.611 0-16.483-1.111-22.577-2.957 5.093 4.655 17.742 7.96 32.575 7.96 19.33 0 34.999-5.6 34.999-12.506 0-3.402-3.82-6.485-10.001-8.741z" stroke="#000" stroke-width="1.7" stroke-miterlimit="10" stroke-linecap="round" stroke-linejoin="round"/></svg>