<svg width="19" height="19" fill="none" xmlns="http://www.w3.org/2000/svg"><path d="M9.5 14.034a.673.673 0 00.693-.693.674.674 0 00-.693-.693.673.673 0 00-.693.693.674.674 0 00.692.693zm-.567-3.42h1.204V4.71H8.933v5.902zm.572 7.99a8.825 8.825 0 01-3.545-.717 9.246 9.246 0 01-2.893-1.953 9.24 9.24 0 01-1.954-2.893 8.829 8.829 0 01-.717-3.547c0-1.257.238-2.44.716-3.546A9.137 9.137 0 013.066 3.06a9.307 9.307 0 012.892-1.947A8.828 8.828 0 019.506.396a8.84 8.84 0 013.545.717 9.204 9.204 0 012.89 1.945 9.19 9.19 0 011.946 2.89 8.85 8.85 0 01.717 3.546c0 1.26-.24 2.443-.717 3.546a9.281 9.281 0 01-1.946 2.89 9.191 9.191 0 01-2.89 1.954 8.82 8.82 0 01-3.546.72zm.003-1.204c2.195 0 4.06-.768 5.592-2.304 1.533-1.536 2.3-3.404 2.3-5.604 0-2.195-.766-4.06-2.297-5.593C13.573 2.366 11.704 1.6 9.5 1.6c-2.195 0-4.06.765-5.596 2.296C2.368 5.427 1.6 7.296 1.6 9.5c0 2.194.768 4.06 2.304 5.596C5.44 16.632 7.308 17.4 9.508 17.4z" fill="#A31D1C"/></svg>