<svg width="25" height="16" fill="none" xmlns="http://www.w3.org/2000/svg"><path d="M23.82 13.661h-.562c-.682 0-.655-.65-.655-.65l-.006.002a10.156 10.156 0 00-6.281-8.393l-.026-.014a.93.93 0 01-.567-.785V2.364a1.7 1.7 0 00-1.7-1.7h-3.046a1.7 1.7 0 00-1.7 1.7v1.673c-.015.14-.098.373-.46.527-.024.01-.041.02-.06.028a10.158 10.158 0 00-6.352 8.394l-.004-.001s-.056.676-.703.676h-.42c-.134.003-.667.05-.667.6v.438c.008.189.09.637.706.637h22.339c.61 0 .717-.396.733-.594v-.447c0-.528-.378-.62-.569-.634zM14.495 3.37c-.003.136-.055.638-.684.579a.547.547 0 00-.08-.001c-.405-.05-.813-.083-1.231-.083-.476 0-.941.046-1.4.11a.67.67 0 00-.114.006c-.5.06-.587-.253-.599-.414v-.774c0-.599.485-1.084 1.084-1.084h1.941c.599 0 1.084.485 1.084 1.084v.577zm4.649 10.284h-.859c-.439 0-.55-.236-.576-.4 0-.04-.002-.094-.004-.158-.03-.862-.25-3.819-1.885-6.158h.008l-.19-.32c-.02-.119-.012-.29.276-.05 1.417 1.221 3.512 3.547 3.633 6.721-.008.138-.07.365-.404.365z" fill="#EE842C"/></svg>