<svg width="44" height="44" fill="none" xmlns="http://www.w3.org/2000/svg"><path d="M21.648 41.685c-11.051 0-19.71-8.813-19.71-20.062 0-4.854 1.654-9.511 4.66-13.113a.67.67 0 011.028.857c-2.806 3.361-4.351 7.714-4.351 12.256 0 10.5 8.07 18.725 18.373 18.725 10.52 0 19.077-8.4 19.077-18.725 0-10.326-8.557-18.725-19.077-18.725-3.263 0-6.437.83-9.172 2.397a.674.674 0 01-.913-.25.67.67 0 01.25-.913C14.748 2.45 18.15 1.56 21.647 1.56c11.257 0 20.415 9 20.415 20.063 0 11.062-9.158 20.062-20.415 20.062z" fill="#A31D1C"/><path d="M10.69 6.311a.67.67 0 01-.67.669.67.67 0 01-.668-.669.67.67 0 011.338.001zm16.058 26.036c-.149 0-.3-.05-.423-.151l-7.708-6.315a.67.67 0 01-.025-1.014l5.72-5.162a.666.666 0 01.945.048.667.667 0 01-.049.944l-5.143 4.641 7.106 5.822a.669.669 0 01-.423 1.187z" fill="#A31D1C"/><path d="M27.56 32.596c-.354 0-.735-.111-1.136-.332l-4.395-3.532-2.252 2.077c-.313.306-.695.678-1.456.678-.937 0-1.155-.494-1.298-1-.025-.087-.053-.19-.095-.305l-1.613-5.31-4.622-1.44c-1.089-.335-1.235-1.003-1.247-1.273-.018-.45.216-1.09 1.437-1.58l19.859-7.662a1.437 1.437 0 011.621.432c.272.333.376.766.288 1.19L29.22 30.955c-.308 1.48-1.264 1.64-1.66 1.64zM22 27.18c.149 0 .297.05.419.149l4.748 3.828c.614.292.669-.114.745-.474l3.43-16.416-.084-.109-19.883 7.667a2.22 2.22 0 00-.482.254c.05.024.115.05.197.075l4.964 1.549c.21.067.375.232.44.444l1.704 5.612c.044.117.081.251.113.364a.198.198 0 01.007.025c.178-.001.271-.05.519-.291l2.71-2.502A.68.68 0 0122 27.18z" fill="#A31D1C"/><path d="M27.408 18.349a.67.67 0 01-.669.668.67.67 0 01-.669-.668.67.67 0 011.338 0z" fill="#A31D1C"/></svg>