<svg width="41" height="41" fill="none" xmlns="http://www.w3.org/2000/svg"><path d="M26.473.293H14.367C3.025.293.09 3.224.09 14.55v12.104C-.446 44.085 10.43 40.46 23.525 40.931c.78-.021.778-1.166 0-1.184h-9.177c-10.753 0-13.075-2.326-13.075-13.094V14.55c0-10.752 2.325-13.074 13.095-13.074 26.775-.127 25.3-1.57 25.179 25.198 0 10.752-2.326 13.073-13.095 13.073-.778.008-.776 1.175 0 1.184 11.343 0 14.278-2.931 14.278-14.257V14.571C40.73 3.229 37.8.293 26.473.293z" fill="#A31D1C"/><path d="M23.395 24.944c.66-.161 3.12 2.28 3.797 3.123.875.974 1.403 1.562 2.43 1.562H32.5c.801 0 1.203-.317 1.4-.583.855-1.378-.694-2.955-2.386-4.973-.582-.753-1.723-1.578-2.113-2.314 2.045-3.358 6.53-8.809 2.688-8.93h-2.877c-.59 0-1.38.204-1.802 1.189-.014.035-1.446 3.51-3.405 5.683-.563.523-.825.86-.778.48v-3.71c-.01-.773-1.17-.78-1.184 0v3.71c0 .971.541 1.414 1.044 1.414 2.538-.218 5.478-7.282 5.415-7.12.125-.293.282-.463.71-.463h2.877c.227 0 .333.041.333.027.005.02.01.103-.037.26.031.216-.937 2.434-3.791 6.485-1.275 1.565 1.086 2.844 2.023 4.063.654.777 3.408 3.776 1.883 3.6h-2.878c-.478 0-.734-.262-1.55-1.17-1.254-1.493-3.616-3.697-4.677-3.516-1.188 0-1.352.759-1.352 1.578v2.59c0 .311 0 .517-1.463.517-3 0-6.099-1.872-8.294-5.013-3.614-5.048-4.43-8.725-4.43-9.192a.592.592 0 00-.593-.591c-1.762-.055.914 6.076 4.056 10.465 2.413 3.453 5.875 5.513 9.261 5.513 1.589 0 2.647-.289 2.647-1.7v-2.59c.024-.32-.056-.417.168-.395z" fill="#A31D1C"/><path d="M12.975 14.3c-.27-.712-.656-1.472-1.849-1.472H8.697c-.773.013-.782 1.17 0 1.184h2.43c.367 0 .485.03.734.688 1.124 3.305 3.66 8.086 5.307 8.086 1.127 0 1.127-1.135 1.127-1.68l-.002-4.272c-.309-3.714-3.859-2.685 3.692-2.808.01.017.058.116.058.442.011.777 1.172.778 1.184 0 0-1.088-.475-1.64-1.414-1.64h-4.521c-1.417.056-1.673 1.536-.854 2.322.286.356.61.76.673 1.722-.009.213.023 4.625-.022 4.687-.705-.41-2.741-3.222-4.114-7.26z" fill="#A31D1C"/></svg>