<svg width="40" height="41" fill="none" xmlns="http://www.w3.org/2000/svg"><path d="M9.641 37.092c-1.141-.713-6.705 3.424-7.561 2.425-.856-.856 2.853-6.705 2.14-7.704C1.937 28.675.653 24.823.653 20.685c0-10.557 8.56-19.26 19.26-19.26 10.7 0 19.26 8.703 19.26 19.26 0 10.558-8.56 19.26-19.26 19.26a18.05 18.05 0 01-3.994-.428" stroke="#A31D1C" stroke-width="1.25" stroke-miterlimit="10" stroke-linecap="round" stroke-linejoin="round"/><path d="M15.919 10.984l1.712 4.28c.143.285 0 .57-.285.713-.714.428-1.712 1.427-.571 2.996 1.427 1.998 5.279 6.99 8.417 3.71.143-.143.428-.286.714-.143l4.565 1.997c.285.143.428.57.285.856-.998 1.997-4.85 7.276-14.409-.998-9.701-8.418-3.424-12.555-1.284-13.554.285-.428.713-.285.856.143z" stroke="#A31D1C" stroke-width="1.25" stroke-miterlimit="10" stroke-linecap="round" stroke-linejoin="round"/></svg>